<?xml version="1.0" encoding="utf-8"?>
<!-- Generator: Adobe Illustrator 25.0.1, SVG Export Plug-In . SVG Version: 6.00 Build 0)  -->
<svg version="1.1" id="Layer_1" xmlns="http://www.w3.org/2000/svg" xmlns:xlink="http://www.w3.org/1999/xlink" x="0px" y="0px"
	 viewBox="0 0 108 108" style="enable-background:new 0 0 108 108;" xml:space="preserve">
<style type="text/css">
	.st0{fill:none;}
	path { fill: #000000; }
	@media (prefers-color-scheme: dark) {
		path { fill: #ffffff; }
	}
</style>
<g>
	<rect class="st0" width="108" height="108"/>
	<g id="Layer_2_1_">
		<g id="Layer_1-2">
			<path d="M69.9,13.8c-2.9,8.9-9.1,31.9-10.5,37.5c-2.3-0.1-5.6-0.1-9.3-0.1c-4.9,0-8.7,0.1-10.1,0.1c-0.7-3.1-2.2-9.7-3.4-16.1
				c-0.5-2.8-1-5.9-1.4-8.7h-0.4c-0.4,2.8-1,6.1-1.6,8.8c-1.4,5.9-3,12.5-3.8,15.9c-1.7,0-5.2-0.1-8.3-0.1c-5,0-7.9,0.1-9.5,0.1
				C9.8,44.7,4.2,22.7,1,13.8h16.9c0.3,2.7,2.2,13.1,3.6,20c0.4,2.3,0.8,4.4,1.2,6.3H23c0.4-1.8,0.9-4.1,1.4-6.4
				c1.4-6.9,3.4-16.3,3.8-19.9c2,0.1,6.8,0.1,9.4,0.1c2.4,0,6.4-0.1,8.2-0.1c0.4,3.3,2,13,3.7,20.1c0.7,2.4,1.1,4.6,1.4,6.4h0.3
				c0.3-1.8,0.7-3.9,1.2-6.4c1.4-7.1,3.2-16.5,3.7-20.1L69.9,13.8L69.9,13.8z"/>
			<path d="M80.9,94.2c-18.7,0-28.2-6.8-28.2-21.9c0-15.2,9.6-21,28.1-21c18.8,0,26.1,5.1,26.1,14c0,0.7,0,1.3-0.1,2
				c-2.4-0.1-5.6-0.2-8.7-0.2c-3.2,0-6.1,0.1-8.3,0.2c0-0.4,0.1-0.7,0.1-1.1c0-3.3-2.8-4.7-9.2-4.7c-7.4,0-10.5,2.8-10.5,11.1
				c0,7.7,2.9,11.2,11.1,11.2c5.9,0,8.6-1.6,9.3-5.6c-4.1,0-8.6,0.1-12.1,0.2c0.1-0.8,0.1-3,0.1-3.9c0-1.6,0-2.9-0.1-4
				c5.5,0.1,11,0.1,15.1,0.1c3.6,0,8.3,0.1,13.2-0.1C107.9,86.5,104.2,94.2,80.9,94.2z"/>
		</g>
	</g>
</g>
</svg>
