<?xml version="1.0" encoding="utf-8"?>
<!-- Generator: Adobe Illustrator 25.0.1, SVG Export Plug-In . SVG Version: 6.00 Build 0)  -->
<svg version="1.1" id="Layer_1" xmlns="http://www.w3.org/2000/svg" xmlns:xlink="http://www.w3.org/1999/xlink" x="0px" y="0px"
	 viewBox="0 0 758.1 341.1" width="100%" height="100%" style="enable-background:new 0 0 758.1 341.1;" xml:space="preserve">
<style type="text/css">
	.st0{enable-background:new    ;}
	.st1{fill:#FFFFFF;}
</style>
<g>
	<g id="Group_548_3_" transform="translate(18174 20827)">
		<g class="st0">
			<path class="st1" d="M-17776.2-21294.4c-13.6,41.9-14.1,87-35.4,126.9c-9.8-1.6-19.5-3.4-29.3-5.1c-10.5-1.8-21.2-3-31.9-2.7
				c-0.8-16,0.3-28.8,2.9-44.9c1.6-8.6-0.6-19.8-4.3-27.6c-0.6,0-0.8,0-1.4,0c1.6,8.7-0.9,20.4-6.2,27.7c-10.5,15-17.8,28.2-25,44.9
				c-5.4,0.1-16.3-0.1-26,0.1c-10,0.1-19.9,0.3-29.9,0.7c-10.3-40.3-20.1-80.6-33.9-120c18.1,0,36.2,0,54.3,0
				c3.9,23.1,16.4,44,19.2,67.4c0.7,6.9,0.5,13.3,0.5,18.5c0.4,0,0.6,0,1,0c2.8-5.2,6.5-11.4,9.5-18.1c9.6-21.1,2.3-45.5,3-67.7
				c10,0.2,20.1,0.3,30.1,0.3c7.7,0,20.3-0.2,26.2-0.3c5.6,23.7,25.1,45.1,23.8,70.2c0.1,7.4-1.4,13.7-2.3,18.9c0.4,0,0.5,0,0.9,0.1
				c2.8-5.3,6.3-11.3,9.4-19.2c8.9-22.1-0.9-47,0.7-70C-17805.4-21294.4-17790.8-21294.4-17776.2-21294.4z"/>
			<path class="st1" d="M-17661.8-21226.8c18.6,2.3,33.5,11,42.4,27.7c5.1,9.7,7.4,19.7,7.8,24.9c-14.7-0.4-28.9-1.6-43.5-3.8
				c-7.7-1.3-9-4-12.9-16.9c-3.6-12-10.5-22-24.2-21.3c-9.8-0.2-14.6-0.2-24.4,0.6c0.6,9.9-0.4,22.8,3.6,32.2
				c-18.6,2.6-34.2,10.3-52.1,15.4c1.6-21.6,2.6-43.8,2.9-65.2c0.4-20.2-1.5-40.8-1.8-61.3c30.7,0,61.4,0,92.1,0
				c20.1,0.7,55.7,3.9,43.5,32.6c-7.1,16.7-13.2,31.9-33.8,34.1C-17662-21227.4-17661.9-21227.2-17661.8-21226.8z M-17674.3-21254.2
				c2.1-10.7-2.2-13.1-15.6-12.7c-5,0.1-17.7,0.7-26.4,1.2c-0.6,9.1-2,25.9-0.8,27.1c1.1,1.2,15.2-0.5,25.3-1
				C-17680.2-21240.2-17676.1-21244.8-17674.3-21254.2z"/>
			<path class="st1" d="M-17594.6-21172.5c6.2-20.1-10.5-47.6-12.4-64.9c-2-18.4,12.1-36.9,13.4-57.1c17.1,0,34.2,0.1,51.3,0.1
				c-1.5,21-9.1,41.9-7.9,61.9c1.2,19.4,13.2,48.9,7.5,69.6C-17559.9-21166.4-17577.1-21169.9-17594.6-21172.5z"/>
			<path class="st1" d="M-17478-21199.8c0.4,13.6,15.9,15,26.2,13.7c18.9-2.3,23.3-5.4,22.6-10.5c-1.8-11.9-24.4-13.2-33.4-14.5
				c-23.3-3.4-67-12.9-62.8-45.3c4.6-35.5,45.3-40.9,74.3-40.9c35.6,0,72.1,3.2,66.9,47.2c-0.4,3.5-0.8,7-1.3,10.6
				c-6.1-1.1-16.5-2.5-25.3-3.7c-6.7-0.8-13-1.5-16.9-1.9c0.3-1.2,0.4-2.7,0.5-3.7c1.6-12.9-14.9-15.4-24.1-15.8
				c-18-1-23.2,2.2-23.3,7.5c-0.2,12.5,24.5,15.7,33.6,18.2c20,5.6,54.8,15.6,59,40.4c5.1,30.3-49.7,37.2-68.2,40.1
				c-32.8,5.1-67.7,4.6-72.6-35.7c-0.4-3.6-0.8-7.4-1-11.4c9.5,2.1,19.7,3.6,29.3,3.7c6.3,0.1,11.9-0.2,16.3-0.6
				C-17478.2-21201.3-17478.1-21200.8-17478-21199.8z"/>
			<path class="st1" d="M-17238.4-21294.4c-0.3,4.8-0.3,12.3-0.3,19c0,6.6,0,14.6,0.3,19.8c-13.7,0.4-26.8,1.6-40.4,3.3
				c-0.4,26.4-0.2,53.1,1.5,79.5c-7.2,0-19,0.8-27.4,1.3c-8.4,0.5-19.9,1.2-27.6,1.9c-0.4-24.7-3.3-48.9-1.6-73.6
				c-13.4,2.1-26.9,3.6-40.4,3.8c1.2-9.9,2.4-19.7,3.6-29.6c1.2-10,2.1-20,2.1-25.5
				C-17325.3-21294.1-17281.8-21294.6-17238.4-21294.4z"/>
		</g>
		<g class="st0">
			<path class="st1" d="M-17880.5-21021.5c-44.8,0.2-79.8-16.6-83-64.5c-3.2-47.2,26.6-67.8,71.1-69.7c30.1-1.3,72.2,7,80.3,41.4
				c0.4,1.9,0.9,3.8,1.3,5.7c-7.6,0.1-17.8,0.2-27.5,0.4c-9.8,0.2-18.8,0.4-25.1,0.9c-0.5-1.4-0.8-2.9-1.2-4.1
				c-4.1-13.4-19.2-17.8-31.7-17.1c-23.5,1.4-21.6,24.5-17.8,41.9c4.5,20.5,11.3,34.5,34.8,34.5c12.2,0,24.7-3.7,27.1-17.3
				c-11.8,0.9-23.6,1.2-35.4,1.5c0.2-2.4-0.5-9.3-1.1-12.3c-1.1-5.4-2.6-10.5-4-14.6c14.8,0.1,29.6,0.2,44.4-0.7
				c13.2-0.8,26.4-1.9,39.6-3.7c5.8,18.1,4.2,41.9-7.5,57.6C-17830.6-21022.1-17858.6-21021.6-17880.5-21021.5z"/>
			<path class="st1" d="M-17683.3-21025.3c-2.6-9.3-6.2-18.3-9.6-27.3c-8.1-1.1-16.2-2.2-22.6-2.8c-6.1-0.6-14.7-1.4-23.9-1.6
				c-1.7,10.3-3.4,20.6-4.7,30.9c-17.9-0.1-35.7,0.2-53.5,0.6c14.5-41,20.3-87.2,41.9-125.4c28-8.7,52.2-12.5,80.3-2.9
				c2.5,20.2,6.4,41.1,10.8,61c6.3,28.5,20.9,46,38.8,68.6C-17645-21024.4-17664.1-21024.8-17683.3-21025.3z M-17701.7-21084.6
				c-0.9-12.1-1.7-24.3-3.5-35.9c-1.3-8.5-2.6-16.6-3.3-22.9c-2.7,6.3-6.3,13.8-10.2,22.3c-4.7,10.2-9,20.9-13.2,31.5
				c6,0.6,11.4,1.3,15.5,2C-17710.3-21086.6-17707.4-21086-17701.7-21084.6z"/>
			<path class="st1" d="M-17478-21024.4c-4.9-16-15-33.1-14.3-49.8c0.3-7.4,0.6-16.7,1.1-25.2c-0.4-0.1-0.5-0.1-0.9-0.1
				c-3.4,9-6.8,17.7-10.2,24.3c-8,17.2-7.2,32.3-9,50.9c-9.7,0-14.5,0-24.2,0c-15-16.8-34.9-32.3-43.5-53.8
				c-3.2-6.6-6.6-15.2-9.4-23.5c-0.3,0.1-0.5,0.1-0.8,0.2c0.5,8.3,0.8,16.8,1.1,25.3c0.6,19.7,10.8,33.7,17.6,51.8
				c-14.2,0-28.4,0-42.6,0c-6.2-22-15.5-36.3-15.5-60.2c0-18.1-4.3-42.7,3.6-59.9c21.8,0.3,43.5,1.5,65.3,2.8
				c-0.1,15.4,10.8,32.3,17,45.9c2.4,5.6,5.1,12.6,7.8,19.7c2.6-7,5.3-14.1,7.5-19.7c6.2-13.8,11.5-36.4,26.2-44.2
				c22-0.7,43.9-3,65.8-5c-5.8,17.9-2.8,40.7-3.1,59.2c-0.3,21.9,4.6,40.2,9.2,61.4C-17445.4-21024.4-17461.7-21024.4-17478-21024.4
				z"/>
			<path class="st1" d="M-17274-21142.4c-0.1,3.6-0.1,9.9,0,15.1c0.1,5.4-0.1,11.4,0.2,14.9c-26.1,2.4-52.4,4.9-78.4,0.4
				c-0.1,6.1-0.1,9.1-0.2,15.2c25.8,2.3,51.2,1.4,76.9-0.8c-0.2,5.8-0.4,18.9-0.5,25.1c-25.6-0.2-51.2-0.2-76.8-0.6
				c-0.1,6.3,0,9.9,0,16.6c26.2,0,52.4-0.1,78.6-0.3c-0.2,4-0.2,10.9-0.2,16.8c0,5.1,0,11.5,0.2,15.7c-43.2,0-86.4,0-129.6,0
				c-0.7-20.7-3.2-40.7-2.9-61.5c0.3-20.3,0.1-40.5,0-60.8c23.3,0.1,45,5.7,68.1,7.4
				C-17317.1-21137.7-17295.4-21140.3-17274-21142.4z"/>
		</g>
		<g class="st0">
			<path class="st1" d="M-17893.1-20996.4c-4.7,12.8-8.6,26-12.6,39c-1.8-0.1-4.4-0.1-7.3-0.1c-3.7,0-6.9,0.1-8.2,0.1
				c-0.9-3.7-3.1-11.8-4.8-19c-0.7-2.9-1.4-6.1-2-8.8c-0.1,0-0.1,0-0.2,0c-0.6,2.8-1.3,6-2.2,8.9c-1.9,6.7-4.1,14.6-5.3,18.8
				c-1.3-0.1-3.8-0.1-5.8-0.1c-4.1,0-6.6,0.1-8,0.1c-4.1-13-7.8-26.2-12.7-39c5.5,0,8.3,0,13.8,0c0.5,3,3.2,14.7,5.1,22.4
				c0.7,2.7,1.2,5,1.7,6.9c0.1,0,0.2,0,0.3,0c0.5-1.9,1.1-4.3,1.8-7.1c1.8-7.5,4.5-18,5.1-22.3c1.9,0.1,5.9,0.1,8.3,0.1
				c2.1,0,4.9,0,6.6-0.1c0.7,4,3,14.6,5.3,22.5c0.9,3,1.4,5.3,1.8,7.1c0.1,0,0.2,0,0.4,0c0.4-1.8,0.8-4.1,1.6-7.1
				c1.8-7.7,4.1-18.3,4.9-22.5C-17900.6-20996.4-17898.1-20996.4-17893.1-20996.4z"/>
			<path class="st1" d="M-17838.3-20956.2c-12.9,0.5-25.7-7.3-25.7-21.1c0-13.7,13.1-20.8,25.7-20.3c12.5,0.4,25.8,5.9,25.8,20.3
				C-17812.5-20962.7-17825.5-20956.7-17838.3-20956.2z M-17824.6-20977.1c0-6.9-4-10.6-13.6-10.6s-13.7,3.5-13.7,10.6
				c0,7,4,10.9,13.7,10.9C-17828.5-20966.2-17824.6-20970.2-17824.6-20977.1z"/>
			<path class="st1" d="M-17743.1-20972.9c6.8,0.7,9.6,2.2,11.3,7.6c1,3.3,1.9,6.3,2.5,7.9c-4.5,0-6.7,0-11.1,0
				c-1.9,0-2.2-0.5-3.4-5.3c-1.5-5.6-2.7-6.6-8.8-6.6c-4,0-6,0-12.3,0.1c0.1,4.7,0.3,8.9,0.6,11.8c-5,0-7.4,0-12.4,0
				c0.1-5.7,0.2-11.1,0.2-19.5c0-8.3-0.1-13.9-0.2-19.5c11,0,16.6,0,27.6,0c11.4,0,17.4,3.9,17.4,11.9c0,6.8-3.3,10.4-11.4,11.5
				C-17743.1-20973-17743.1-20973-17743.1-20972.9z M-17751.7-20977.7c6,0,8.5-1.6,8.5-4.9c0-3.9-2.7-4.8-8.9-4.8
				c-2.5,0-9.2,0-12.9,0.2c0,3.2-0.5,9,0.1,9.5C-17764.5-20977.2-17757.2-20977.7-17751.7-20977.7z"/>
			<path class="st1" d="M-17682.1-20996.4c-0.2,3-0.3,10.7-0.3,19.4c0,3.2,0,6.6,0,9.4c5.9,0,14.6,0.1,21.6-0.2
				c-0.1,1.7-0.1,3.4-0.1,5.1c0,1.8,0.1,3.5,0.1,5.2c-11.2,0-22.4,0-33.5,0c0-3.6,0.2-11.2,0.2-19.5c0-9,0-15.8-0.2-19.5
				C-17689.4-20996.4-17687-20996.4-17682.1-20996.4z"/>
			<path class="st1" d="M-17603.5-20996.4c12.7-0.2,22.5,5.4,22.5,18.9c0,13.7-9.3,20.4-22.7,20.1c-9.4,0-14.1,0-23.5,0
				c0.2-5.4,0.2-11.2,0.2-19.4c0-8.3,0-14.5-0.2-19.6C-17617.7-20996.4-17613-20996.4-17603.5-20996.4z M-17592.9-20977.3
				c0-7.7-3.3-9.7-10.9-9.7c-4,0-7.7,0.1-11.3,0.2c-0.1,3.3-0.1,6.9-0.1,10.3c0,4.1,0,7,0.1,9.4c4,0.3,7,0.2,11.2,0.2
				C-17596.4-20966.9-17592.9-20969.2-17592.9-20977.3z"/>
			<path class="st1" d="M-17481-20996.4c-4.7,12.8-8.6,26-12.6,39c-1.8-0.1-4.4-0.1-7.3-0.1c-3.7,0-6.9,0.1-8.2,0.1
				c-0.9-3.7-3.1-11.8-4.8-19c-0.7-2.9-1.4-6.1-2-8.8c-0.1,0-0.1,0-0.2,0c-0.6,2.8-1.3,6-2.2,8.9c-1.9,6.7-4.1,14.6-5.3,18.8
				c-1.3-0.1-3.8-0.1-5.8-0.1c-4.1,0-6.6,0.1-8,0.1c-4.1-13-7.8-26.2-12.7-39c5.5,0,8.3,0,13.8,0c0.5,3,3.2,14.7,5.1,22.4
				c0.7,2.7,1.2,5,1.7,6.9c0.1,0,0.2,0,0.3,0c0.5-1.9,1.1-4.3,1.8-7.1c1.8-7.5,4.5-18,5.1-22.3c1.9,0.1,5.9,0.1,8.3,0.1
				c2.1,0,4.9,0,6.6-0.1c0.7,4,3,14.6,5.3,22.5c0.9,3,1.4,5.3,1.8,7.1c0.1,0,0.2,0,0.4,0c0.4-1.8,0.8-4.1,1.6-7.1
				c1.8-7.7,4.1-18.3,4.9-22.5C-17488.5-20996.4-17486-20996.4-17481-20996.4z"/>
			<path class="st1" d="M-17448-20957.4c0.2-6,0.2-11.2,0.2-19.5c0-8.3,0-13.6-0.2-19.5c4.8,0,7.3,0,12.1,0
				c-0.2,5.9-0.2,11.1-0.2,19.4c0,8.2,0,13.5,0.2,19.6C-17440.7-20957.4-17443.1-20957.4-17448-20957.4z"/>
			<path class="st1" d="M-17374.2-20996.4c12.7-0.2,22.5,5.4,22.5,18.9c0,13.7-9.3,20.4-22.7,20.1c-9.4,0-14.1,0-23.5,0
				c0.2-5.4,0.2-11.2,0.2-19.4c0-8.3,0-14.5-0.2-19.6C-17388.4-20996.4-17383.7-20996.4-17374.2-20996.4z M-17363.6-20977.3
				c0-7.7-3.3-9.7-10.9-9.7c-4,0-7.7,0.1-11.3,0.2c-0.1,3.3-0.1,6.9-0.1,10.3c0,4.1,0,7,0.1,9.4c4,0.3,7,0.2,11.2,0.2
				C-17367.2-20966.9-17363.6-20969.2-17363.6-20977.3z"/>
			<path class="st1" d="M-17274.9-20996.4c-0.1,1-0.1,2.8-0.1,4.3c0,1.5-0.1,3.5,0.1,4.6c-9.6-0.1-19.2-0.1-28.9-0.1
				c0,2.6,0,3.9,0,6.5c9.4,0,18.9,0,28.3-0.2c-0.1,1.9-0.1,6.2-0.1,8.2c-9.4-0.1-18.9-0.2-28.3-0.2c0,2.7,0,4,0,6.7
				c9.6,0,19.2,0,28.9-0.1c-0.1,1.1-0.1,3.2-0.1,4.8c0,1.5,0,3.4,0.1,4.5c-13.7,0-27.3,0-41,0c0.2-5.2,0.2-11.2,0.2-19.5
				c0-8.3,0-14.5-0.2-19.5C-17302.2-20996.4-17288.6-20996.4-17274.9-20996.4z"/>
		</g>
	</g>
</g>
<g id="Group_548_2_" transform="translate(18174 20827)">
	<g class="st0">
		<path class="st1" d="M-17953.7-20824.1c-9.4,28.5-29,101.9-33.6,120c-7.4-0.2-17.8-0.3-29.6-0.3c-15.7,0-27.7,0.2-32.2,0.3
			c-2.1-9.8-6.9-31-11-51.4c-1.6-8.8-3.2-18.7-4.5-27.7h-1.3c-1.4,9.1-3.2,19.5-5.1,28.2c-4.5,18.9-9.6,40-12.2,50.9
			c-5.4,0-16.6-0.3-26.6-0.3c-16,0-25.4,0.2-30.4,0.3c-5.8-21-23.7-91.4-33.9-120h54.2c1,8.5,6.9,41.9,11.5,64
			c1.4,7.2,2.7,14.2,4,20h1c1.3-5.9,2.9-13,4.5-20.3c4.5-22.1,10.9-52,12.2-63.7c6.4,0.2,21.8,0.3,30.1,0.3c7.7,0,20.3-0.2,26.2-0.3
			c1.4,10.7,6.4,41.6,11.7,64.3c2.1,7.8,3.4,14.7,4.5,20.3h1c1-5.8,2.1-12.5,3.8-20.3c4.5-22.7,10.1-52.6,11.7-64.3H-17953.7z"/>
		<path class="st1" d="M-17829-20753.1c21.4,2.4,30.6,7.5,34.7,25c2.4,9,4.6,18.9,6.4,24h-43.5c-7.8,0-9.8-2.1-12.5-15.5
			c-3.5-17.9-6.6-21.3-21.6-21.3h-26.6c0.3,15,1,27.8,1.9,36.8h-51.2c0.3-17.4,0.8-34.2,0.8-60c0-25.4-0.3-42.7-0.8-60h92.2
			c36.2,0,55.4,10.4,55.4,35.5c0,21.4-10.1,31.4-35.2,34.6V-20753.1z M-17842.2-20781.6c0-11.2-6.2-14.1-21.3-14.1
			c-5.6,0-19.7,0.2-29.1,0.5c0,9.3,0,18.7,0.2,27.7c6.7,0.3,17.9,0.3,30.2,0.3C-17847.9-20767.2-17842.2-20771.6-17842.2-20781.6z"
			/>
		<path class="st1" d="M-17771-20704.1c0.5-17.9,0.5-34.6,0.5-60c0-25.4,0-42.2-0.5-60h51.2c-0.5,17.6-0.5,34.2-0.5,59.8
			c0,25.3,0.2,42.1,0.5,60.2H-17771z"/>
		<path class="st1" d="M-17654.6-20741.7c0,8.3,5.8,11.7,25.8,11.7c20.6,0,24.6-3,24.6-8.5c0-6.2-3.4-10.2-33.6-12.3
			c-49.9-3.8-61.4-15.5-61.4-37.9c0-25.4,20.3-38.2,70.6-38.2c55.5,0,71.4,10.7,71.4,34.6c0,2.4,0,4.8-0.2,7.4
			c-6.2-0.5-17-0.8-26.1-0.8c-6.9,0-13.4,0.2-17.4,0.3c0.2-1,0.2-2.1,0.2-2.9c0-6.9-4.2-10.2-26.1-10.2c-18.9,0-23,2.9-23,7.7
			c0,5.6,2.9,9.3,35.7,12.2c45.3,4,59.4,13.8,59.4,38.9c0,25.8-17.9,38.7-71.5,38.7c-56,0-73.1-10.7-73.1-34.6
			c0-2.7,0.2-5.6,0.5-8.6c7.4,0.6,17.9,1.3,28,1.3c6.2,0,12-0.2,16.5-0.5V-20741.7z"/>
		<path class="st1" d="M-17415.9-20824.1c-0.3,4.8-0.3,12.3-0.3,19c0,6.6,0,14.6,0.3,19.8c-13.4-0.3-26.7-0.3-39-0.5
			c0,37.9,0.2,73.1,0.6,81.8c-7-0.5-18.6-0.5-26.7-0.5s-19.4,0-26.9,0.5c0.5-8.5,0.8-43.7,1-81.8c-12.3,0.2-25.6,0.2-39.2,0.5
			c0.2-5.3,0.2-13.3,0.2-19.8c0-6.7,0-14.1-0.2-19H-17415.9z"/>
	</g>
	<g class="st0">
		<path class="st1" d="M-18058.1-20551.2c-54.7,0-82.6-20-82.6-64.2c0-44.5,28-61.6,82.2-61.6c55,0,76.5,15,76.5,41.1
			c0,1.9,0,3.8-0.2,5.8c-7-0.3-16.5-0.5-25.6-0.5c-9.3,0-17.9,0.2-24.2,0.5c0-1.1,0.2-2.2,0.2-3.2c0-9.8-8.2-13.8-26.9-13.8
			c-21.8,0-30.7,8.3-30.7,32.5c0,22.6,8.5,32.8,32.5,32.8c17.4,0,25.1-4.8,27.2-16.3c-12,0-25.3,0.2-35.5,0.5
			c0.2-2.4,0.2-8.8,0.2-11.4c0-4.6,0-8.6-0.2-11.8c16,0.3,32.3,0.3,44.3,0.3c10.7,0,24.3,0.2,38.6-0.3
			C-17979.2-20573.8-17989.8-20551.2-18058.1-20551.2z"/>
		<path class="st1" d="M-17859.8-20554.1c-0.6-4.3-2.4-12.3-5.1-22.1c-9.3,0-18.4,0-25.4,0c-6.7,0-16,0-25.4,0
			c-2.7,9.4-4.8,17.3-5.6,22.1h-53.6c13.6-30.6,39.5-102.2,45.1-120h82.1c5.9,17.9,32.2,89.1,46.4,120H-17859.8z M-17872.6-20602.6
			c-3.4-10.9-6.9-21.9-10.4-31.7c-3.2-7.8-5.4-15-7.2-20.6c-1.8,5.6-4.2,12.6-7.2,21c-3.2,9.6-6.9,20.5-10.2,31.2
			c6.4,0.2,12.5,0.2,17.3,0.2H-17872.6z"/>
		<path class="st1" d="M-17653.6-20554.1c0.6-17,1.1-31,1.3-49.8c0-7.7,0.5-16.5,1-25l-0.8-0.2c-3,8.8-6.2,17.4-9.4,24l-25.3,50.9
			h-24.2l-27-53.8c-3.2-6.6-6.6-15.2-9.4-23.5l-0.8,0.2c0.5,8.3,1,16.6,1.1,25.3c0.2,19.7,0.5,34.7,1.1,51.8h-42.6
			c0.8-17.3,1-34.7,1-60.2c0-26.2-0.2-44.2-0.6-59.8h65.1c4.8,11.5,12.3,29,21.4,48.6c2.4,5.6,5.1,12.6,7.8,19.7
			c2.6-7,5.3-14.1,7.5-19.7c8.6-19,16.8-37.3,21.6-48.6h58.9c-0.3,15.7-0.6,33.6-0.6,59.8c0,25.4,0.2,42.9,1,60.2H-17653.6z"/>
		<path class="st1" d="M-17451.8-20674.1c-0.2,3.5-0.3,9.6-0.3,14.6c0,5.1,0,11.7,0.3,15.4c-24.6-0.2-57.3-0.3-78.6-0.3v16.2
			c24.6,0,57.1,0,77-0.5c-0.2,6.1-0.2,19.8-0.2,26.4c-19.4-0.3-52.3-0.6-76.8-0.6v16.8c21.4,0,56-0.2,78.6-0.3
			c-0.2,4-0.2,10.9-0.2,16.8c0,5.1,0,11.5,0.2,15.7h-129.3c0.6-16.3,0.6-34.4,0.6-60c0-25.4,0-44-0.6-60H-17451.8z"/>
	</g>
	<g class="st0">
		<path class="st1" d="M-18070.6-20526.1c-3.4,9-10.6,32.4-12.6,39c-1.8-0.1-4.4-0.1-7.3-0.1c-3.7,0-6.9,0.1-8.2,0.1
			c-0.9-3.7-3.1-11.8-4.8-19c-0.7-2.9-1.4-6.1-2-8.8h-0.2c-0.6,2.8-1.3,6-2.2,8.9c-1.9,6.7-4.1,14.6-5.3,18.8
			c-1.3-0.1-3.8-0.1-5.8-0.1c-4.1,0-6.6,0.1-8,0.1c-2.4-7.6-8.9-30-12.7-39h13.8c0.5,3,3.2,14.7,5.1,22.4c0.7,2.7,1.2,5,1.7,6.9h0.3
			c0.5-1.9,1.1-4.3,1.8-7.1c1.8-7.5,4.5-18,5.1-22.3c1.9,0.1,5.9,0.1,8.3,0.1c2.1,0,4.9,0,6.6-0.1c0.7,4,3,14.6,5.3,22.5
			c0.9,3,1.4,5.3,1.8,7.1h0.4c0.4-1.8,0.8-4.1,1.6-7.1c1.8-7.7,4.1-18.3,4.9-22.5H-18070.6z"/>
		<path class="st1" d="M-18015.9-20485.9c-17.2,0-25.7-8-25.7-21.1c0-13.3,9.3-20.3,25.7-20.3c16.5,0,25.8,7,25.8,20.3
			C-17990-20493.9-17998.6-20485.9-18015.9-20485.9z M-18002.2-20506.8c0-6.9-4-10.6-13.6-10.6c-9.6,0-13.7,3.5-13.7,10.6
			c0,7,4,10.9,13.7,10.9C-18006.1-20495.9-18002.2-20499.9-18002.2-20506.8z"/>
		<path class="st1" d="M-17920.6-20502.6c6.8,0.7,9.6,2.2,11.3,7.6c1,3.3,1.9,6.3,2.5,7.9h-11.1c-1.9,0-2.2-0.5-3.4-5.3
			c-1.5-5.6-2.7-6.6-8.8-6.6c-4,0-6,0-12.3,0.1c0.1,4.7,0.3,8.9,0.6,11.8h-12.4c0.1-5.7,0.2-11.1,0.2-19.5c0-8.3-0.1-13.9-0.2-19.5
			h27.6c11.4,0,17.4,3.9,17.4,11.9c0,6.8-3.3,10.4-11.4,11.5V-20502.6z M-17929.2-20507.4c6,0,8.5-1.6,8.5-4.9
			c0-3.9-2.6-4.9-8.9-4.8c-2.5-0.1-9.2,0-12.9,0.2c0,3.2,0,6.4,0.1,9.5C-17940-20507.4-17934.7-20507.4-17929.2-20507.4z"/>
		<path class="st1" d="M-17859.6-20526.1c-0.2,3-0.3,10.7-0.3,19.4c0,3.2,0,6.6,0,9.4c5.9,0,14.6,0.1,21.6-0.2
			c-0.1,1.7-0.1,3.4-0.1,5.1c0,1.8,0.1,3.5,0.1,5.2h-33.5c0-3.6,0.2-11.2,0.2-19.5c0-9,0-15.8-0.2-19.5H-17859.6z"/>
		<path class="st1" d="M-17781-20526.1c16.7,0,22.5,5.7,22.5,18.9c0,13.6-5.5,20.1-22.7,20.1h-23.5c0.2-5.4,0.2-11.2,0.2-19.4
			c0-8.3,0-14.5-0.2-19.6H-17781z M-17770.4-20507c0-7.7-3.3-9.7-10.9-9.7c-4,0-7.7,0.1-11.3,0.2c-0.1,3.3-0.1,6.9-0.1,10.3
			c0,4.1,0,7,0.1,9.4c4,0.3,7,0.2,11.2,0.2C-17774-20496.6-17770.4-20498.9-17770.4-20507z"/>
		<path class="st1" d="M-17658.5-20526.1c-3.4,9-10.6,32.4-12.6,39c-1.8-0.1-4.4-0.1-7.3-0.1c-3.7,0-6.9,0.1-8.2,0.1
			c-0.9-3.7-3.1-11.8-4.8-19c-0.7-2.9-1.4-6.1-2-8.8h-0.2c-0.6,2.8-1.3,6-2.2,8.9c-1.9,6.7-4.1,14.6-5.3,18.8
			c-1.3-0.1-3.8-0.1-5.8-0.1c-4.1,0-6.6,0.1-8,0.1c-2.4-7.6-8.9-30-12.7-39h13.8c0.5,3,3.2,14.7,5.1,22.4c0.7,2.7,1.2,5,1.7,6.9h0.3
			c0.5-1.9,1.1-4.3,1.8-7.1c1.8-7.5,4.5-18,5.1-22.3c1.9,0.1,5.9,0.1,8.3,0.1c2.1,0,4.9,0,6.6-0.1c0.7,4,3,14.6,5.3,22.5
			c0.9,3,1.4,5.3,1.8,7.1h0.4c0.4-1.8,0.8-4.1,1.6-7.1c1.8-7.7,4.1-18.3,4.9-22.5H-17658.5z"/>
		<path class="st1" d="M-17625.5-20487.1c0.2-6,0.2-11.2,0.2-19.5c0-8.3,0-13.6-0.2-19.5h12.1c-0.2,5.9-0.2,11.1-0.2,19.4
			c0,8.2,0,13.5,0.2,19.6H-17625.5z"/>
		<path class="st1" d="M-17551.8-20526.1c16.7,0,22.5,5.7,22.5,18.9c0,13.6-5.5,20.1-22.7,20.1h-23.5c0.2-5.4,0.2-11.2,0.2-19.4
			c0-8.3,0-14.5-0.2-19.6H-17551.8z M-17541.2-20507c0-7.7-3.3-9.7-10.9-9.7c-4,0-7.7,0.1-11.3,0.2c-0.1,3.3-0.1,6.9-0.1,10.3
			c0,4.1,0,7,0.1,9.4c4,0.3,7,0.2,11.2,0.2C-17544.7-20496.6-17541.2-20498.9-17541.2-20507z"/>
		<path class="st1" d="M-17452.4-20526.1c-0.1,1-0.1,2.8-0.1,4.3c0,1.5-0.1,3.5,0.1,4.6c-8.7-0.1-21.4-0.1-28.9-0.1v6.5
			c8.7,0,21.4,0,28.3-0.2c-0.1,1.9-0.1,6.2-0.1,8.2c-6.8-0.1-19.6-0.2-28.3-0.2v6.7c7.4,0,20.6-0.1,28.9-0.1
			c-0.1,1.1-0.1,3.2-0.1,4.8c0,1.5,0,3.4,0.1,4.5h-41c0.2-5.2,0.2-11.2,0.2-19.5c0-8.3,0-14.5-0.2-19.5H-17452.4z"/>
	</g>
</g>
<g>
	<g id="Group_548_8_" transform="translate(18174 20827)">
		<g class="st0">
			<path class="st1" d="M-15702.2-20810.4c-29.5,46.1-56.3,94.8-76.6,145.7c-12.1,0.1-24.3,0.3-36.4,0.6
				c-13.2,0.4-26.4,0.8-39.6,1.6c-1-19.4,0.4-38.3,3.6-57.4c2.1-10.3,5.4-20.9,9.3-30.7c-0.6,0.1-0.9,0.1-1.4,0.2
				c-7.1,10.6-13.9,21.3-20.7,32.1c-11.9,18.6-23.3,37.4-32.6,57.4c-10.9,0.3-21.8,0.6-32.6,1c-12.5,0.5-25,1.1-37.5,2
				c-2.2-43.7,15.6-84.3,42.4-118c18.2-3.9,36.4-7.6,54.7-11.1c-15.3,19.9-28.1,42.7-35.1,66.9c-2.4,7.6-4.3,15.1-5.3,21.2
				c0.5,0,0.7-0.1,1.1-0.1c4.1-6.5,9.4-14.3,15.3-22.5c17.6-25.1,37.5-48.2,57.4-71.5c10-1.5,20.1-3,30.1-4.5
				c7.7-1.2,20.6-3.2,26.7-4.2c-11,23-18.8,47.9-21.7,73.2c-0.7,9-1.5,16.9-1.9,23.3c0.5,0,0.7,0,1.1-0.1c2.9-6.8,6.5-14.7,11.6-24
				c13.5-26.2,28.6-51.5,43.9-76.7C-15731.7-20807.5-15717-20809-15702.2-20810.4z"/>
			<path class="st1" d="M-15582-20728.8c20.4,1.9,35.8,10.1,40.6,31c2.3,9.9,4.8,20.2,7.9,30c-17.9,0-35.7,0-53.6,0.1
				c-9.6,0-12.5-2.9-14.6-19.2c-2.1-15.9-6.6-27.2-24.4-26.1c-10.5,0.2-21,0.4-31.6,0.7c-1.2,15.1-2.3,30.2-1.7,45.4
				c-21,0.3-42,0.6-63,1c2.9-24.5,7.3-48.9,12.6-72.8c5.4-24.4,12.1-48.8,19.9-72.7c30.9-2.5,61.9-4.3,92.9-5.4
				c29.1-1.6,55.5,11.8,55.9,43.5c0.4,25.9-16.4,39.8-41,43.4C-15581.9-20729.5-15582-20729.3-15582-20728.8z M-15594.8-20764.1
				c1.4-13.8-9.7-17.5-21.5-17c-10.4,0.5-21.1,0.9-31.7,1.8c-2.1,11.4-6.9,32.6-5.6,34.1c1.9,2.2,23.1-0.4,34.6-0.6
				C-15606.8-20745.9-15596.1-20751.1-15594.8-20764.1z"/>
			<path class="st1" d="M-15512.6-20667.7c0.3-25-0.5-50-1.4-74.9c-0.9-25-2-50-4-74.9c17.2,0.3,34.4,0.8,51.6,1.5
				c3.8,24.7,7.3,49.5,10.1,74.2c2.8,24.7,4.9,49.7,6.6,74.6C-15470.6-20667.5-15491.6-20667.7-15512.6-20667.7z"/>
			<path class="st1" d="M-15375.5-20711.9c2.4,14.6,22.3,14.8,33.2,15.2c7.3,0.3,29,1.7,27.5-8.9c-1.9-13.9-31.5-15.1-43-16.5
				c-33-4.1-72.5-10.7-79.2-49.3c-6.8-38.9,30.8-44.8,61-41.7c35.3,3.6,76.2,13.4,93,48.4c1.3,2.8,2.6,5.5,3.8,8.5
				c-9.7-1.6-19.5-2.7-29.3-3.6c-7.6-0.6-14.8-1.1-19.2-1.2c-0.2-1.1-0.7-2.5-1.1-3.4c-4.6-12.3-21.7-13.8-32.8-14.5
				c-20-1.2-23.8,1.8-22.1,7.5c4.1,14.5,32.7,15.4,43.9,17.2c32.3,5.2,72,14.8,83.1,50c13.7,43.6-53,42.7-77.9,42.2
				c-32.4-0.6-89.2-0.6-93.7-44.2c-0.3-3.3-0.6-6.9-0.6-10.6c11.1,1.3,22.3,2.1,33.4,2.5c7.3,0.3,14.2,0.3,19.4,0.1
				C-15375.7-20713.3-15375.6-20712.8-15375.5-20711.9z"/>
			<path class="st1" d="M-15159.9-20775.9c4.9,4.7,12.8,12.3,19.3,19c6.3,6.6,13.5,14.6,18.3,19.9c-14.5-2.4-29-4.6-43.6-6.8
				c18.5,26.8,33.3,54.7,43,85.8c-11-1-22-1.5-33-2c-10.9-0.5-22-1-33-0.8c-5.2-32.1-19.1-62.1-34.6-90.4
				c-14.4-1.5-28.7-3.1-43.1-4.2c-2.7-6-7.4-15.2-11.6-22.6c-4.3-7.7-9.3-16.1-13-21.8
				C-15247.2-20793.2-15203.4-20785.3-15159.9-20775.9z"/>
		</g>
		<g class="st0">
			<path class="st1" d="M-15846-20489.4c-46.8-3.5-111.2-24.4-123.2-76.1c-12.8-54.9,59.5-65.9,98.7-66c34-0.1,93,1.4,95.3,47.7
				c0.1,2.3,0.3,4.6,0.2,6.8c-10.6-0.6-21.3-0.8-31.9-1c-10-0.2-20-0.2-30,0.1c-0.1-1.3,0-2.6-0.1-3.7c-1.1-15.3-23.7-16-34.5-16.1
				c-22.7-0.1-39,11-34.2,35.4c4.8,24.4,25,37.2,48.7,38.4c12.3,0.6,29-0.9,28.3-17.1c-14.4-0.6-28.8-1-43.2-1.3
				c-0.5-2.7-2-9.9-2.6-12.8c-1-5.2-1.8-9.7-2.5-13.3c18.3,0.8,36.7,1.3,55,1.7c15.9,0.4,31.8,0.7,47.7,0.6
				c3,18.2,9.4,45.2-2.8,61.7C-15791.7-20484.2-15824.8-20487.8-15846-20489.4z"/>
			<path class="st1" d="M-15617.4-20481c-2.2-9.3-5.4-18.4-8.4-27.5c-10.1-0.2-20.3-0.4-30.4-0.6c-10.1-0.2-20.3-0.5-30.4-0.8
				c-1.7,11.5-2.4,21-2.3,26.8c-20.7-0.8-41.5-1.8-62.2-2.9c8.4-49.6,23.5-96.5,40.5-143.7c34.1-0.2,68.3-0.4,102.4-0.5
				c16.4,50.9,37.1,100.9,58.4,149.9C-15572.2-20480.4-15594.8-20480.6-15617.4-20481z M-15637.3-20541.5
				c-4.7-13.2-9.3-26.7-14.6-39.3c-4-9.6-7.2-18.6-9.4-25.5c-2.2,6.9-5.3,15.7-8.6,25.8c-3.9,12.4-7.3,25.4-10.5,38.2
				c7.9,0.3,15.3,0.4,21.2,0.5C-15650.3-20541.6-15646-20541.6-15637.3-20541.5z"/>
			<path class="st1" d="M-15378.1-20483.8c4.6-20.1,8.5-40.2,10.9-60.5c1.2-10,2.5-20.2,3.6-30.3c-0.4-0.1-0.6-0.1-1-0.2
				c-4.2,10-8.5,20-13.9,29.4c-12.6,21.2-25.4,42.1-38.3,63.1c-9.3,0.3-18.7,0.6-28,0.8c-8.2-22.5-17.5-44.4-27.4-66.2
				c-4.2-9.5-7.7-19.4-10.9-29.2c-0.4,0.1-0.6,0.1-1,0.2c0.5,10.5,0.8,21.1,0.6,31.5c-0.5,21.4-1.2,43.1-2,64.6
				c-16.5,0.3-32.9,0.4-49.4,0.4c1.3-25,1.5-50.2,1.7-75.2c0.1-24.9,0.1-49.9-0.7-74.8c27.1,0,54.2,0.1,81.2,0.2
				c8.7,20.1,17.6,40.1,26.2,60.2c2.7,6.9,5.6,15.5,8.3,24.2c3.8-8.7,7.6-17.4,10.7-24.3c9.8-19.6,19.4-39.3,27.5-59.6
				c24.5,0.2,49,0.4,73.4,0.6c0.6,23.8-0.5,47.8-3.2,71.1c-2.7,23.8-7.4,47.8-13,71.4
				C-15341-20485.6-15359.6-20484.7-15378.1-20483.8z"/>
			<path class="st1" d="M-15114.1-20626.7c0.2,3.7,0.4,10,0.5,15.2c0.1,5.4-0.1,12.2,0,16.1c-32.7,0.2-65.4,0.4-98.1,0.7
				c-0.4,7.3-0.6,10.9-1.5,18.2c31.9-0.7,63.9-1.3,95.8-2.8c-1.7,9.3-3.8,18.6-6.5,27.7c-31.3,1.2-62.6,2.4-93.9,3.7
				c-1.6,7.6-2.6,11.4-4.7,19c31.7-1.7,63.4-3.8,95-6.2c-1.8,4.2-4.9,11.4-7.9,17.6c-2.6,5.4-6.2,12-8.6,16.4
				c-49.9,5.2-99.9,9.4-150,12.8c8.2-22.8,13.6-46.6,16.7-70.2c3.1-22.9,4.2-46.7,1.9-70.2
				C-15221.6-20628.3-15167.9-20627.6-15114.1-20626.7z"/>
		</g>
		<g class="st0">
			<path class="st1" d="M-15846.4-20462.5c2.9,14.4,8.5,28.3,15,41.5c-1.9-0.4-4.5-0.9-7.4-1.4c-3.7-0.6-6.9-1.2-8.2-1.3
				c-7.1-7.1-14-14.2-21-21.5c-3.1-3.3-6.3-6.8-8.9-9.8c-0.1,0-0.1,0-0.2,0c1.5,2.9,3.3,6.3,4.7,9.3c3.4,6.9,8.2,15,10.9,19.3
				c-1.4-0.3-4-0.8-5.9-1.2c-4.1-0.8-6.6-1.2-7.9-1.4c-16.1-14.1-31.6-28.8-47.4-43.2c6.1,0.9,9.1,1.3,15.2,2.1
				c7.5,8.5,15.4,16.7,23.4,24.6c3,3,5.6,5.6,7.8,7.7c0.1,0,0.2,0,0.3,0.1c-1.2-2-2.6-4.3-4.2-7.2c-4.4-7.7-9.4-18.6-11.8-23.1
				c2.2,0.3,6.6,0.9,9.2,1.2c2.4,0.3,5.5,0.7,7.3,0.9c7,8.8,14.4,17.3,22.1,25.4c3.3,3.4,5.7,6,7.5,8.1c0.2,0,0.2,0,0.4,0.1
				c-1.1-1.9-2.5-4.3-4-7.5c-4.1-8.3-8.8-19.5-10.7-24.1C-15854.7-20463.5-15852-20463.2-15846.4-20462.5z"/>
			<path class="st1" d="M-15763-20409.5c-16.4-2.4-31.7-13.4-40-27.7c-7.9-13.6,2.3-22.4,16.4-20.6c15.3,2,31.2,12.3,38.1,26.5
				C-15742.3-20418.5-15748.5-20407.4-15763-20409.5z M-15761.2-20432.3c-3.7-8.1-9.8-12.8-20.2-13.8c-10.4-1-12.9,2.6-8.7,10.7
				c4.2,8,10.9,13.1,20.9,14.3C-15759.2-20420-15757.6-20424.2-15761.2-20432.3z"/>
			<path class="st1" d="M-15673.6-20420.1c7.3,1.3,10.8,3.3,14.2,10c2.1,4.1,4,7.8,5.1,9.9c-4.5-0.3-6.7-0.4-11.2-0.8
				c-1.9-0.1-2.4-0.8-5.4-6.7c-3.5-6.9-5.1-8.2-11.5-8.6c-4.2-0.3-6.3-0.4-12.7-0.9c2,5.7,3.9,10.8,5.5,14.4
				c-5-0.4-7.5-0.7-12.4-1.1c-2.6-6.8-4.9-13.4-8.4-23.5c-3.4-10-5.5-16.7-7.6-23.5c10.2,0.7,20.3,1.3,30.5,1.8
				c10,0.1,20.1,5.1,22.4,15.5c1.8,8.3-0.5,12.6-8.6,13.4C-15673.7-20420.3-15673.7-20420.2-15673.6-20420.1z M-15684.3-20426.6
				c6.3,0.4,8.4-1.4,7.4-5.5c-1.2-4.8-4.4-6-11.2-6.5c-2.7-0.2-9.9-0.6-14-0.7c1.1,3.9,2.2,10.5,3.5,11.5
				C-15697.5-20426.9-15690.1-20427-15684.3-20426.6z"/>
			<path class="st1" d="M-15613.5-20446.2c0.3,3.7,1.3,13.2,2.8,24.2c0.5,4,1.1,8.1,1.6,11.6c6.1,0.2,15,0.5,22.3,0.5
				c0.1,2.1,0.3,4.3,0.5,6.4c0.2,2.2,0.5,4.3,0.8,6.5c-11.2-0.3-22.4-0.7-33.7-1.2c-0.8-4.4-2.3-13.9-3.9-24.2
				c-1.8-11.2-3-19.5-3.8-24.2C-15621.6-20446.5-15618.9-20446.4-15613.5-20446.2z"/>
			<path class="st1" d="M-15526.7-20445.3c15.2-1.2,24.4,8.3,23.2,23.3c-1.2,14.7-9.1,25.6-24.8,25.4c-9.4,0.1-14.2,0.1-23.6,0
				c0-6.8-0.2-14-0.4-24.3c-0.2-10.3-0.3-18.1-0.6-24.4C-15542.4-20445.3-15537.2-20445.3-15526.7-20445.3z M-15516.1-20421.6
				c0.5-9.6-3-12-11.2-12c-4.3,0-8.3,0.1-12.2,0.3c-0.1,4.1-0.2,8.6-0.2,12.9c0,5.1,0,8.8,0,11.8c4.1,0.3,7.2,0.2,11.6,0.1
				C-15520.5-20408.5-15516.7-20411.5-15516.1-20421.6z"/>
			<path class="st1" d="M-15391.5-20449.5c-9.1,16-17.7,32.3-26.4,48.5c-1.8,0.1-4.4,0.2-7.3,0.4c-3.7,0.3-7,0.5-8.3,0.7
				c0.3-4.5,0.5-14.3,0.5-23.1c0-3.5,0.1-7.4,0.2-10.7c-0.1,0-0.1,0-0.2,0c-1.3,3.4-2.9,7.5-4.6,11.1c-3.7,8.4-8.1,18.2-10.4,23.5
				c-1.3,0-3.8,0.1-5.8,0.2c-4.1,0.2-6.6,0.4-8,0.5c-1.1-16-2.2-32.3-6-47.9c6.1-0.2,9.1-0.3,15.2-0.5c0,3.7,0.6,18.1,0.9,27.5
				c0.1,3.3,0.1,6.2,0.2,8.5c0.1,0,0.2,0,0.3,0c0.9-2.4,2.2-5.3,3.6-8.8c3.6-9.2,7.5-18.3,10.5-27.7c2.1,0,6.5-0.2,9.2-0.3
				c2.4-0.1,5.5-0.2,7.3-0.4c-0.2,4.9-0.5,17.7-0.5,27.4c0,3.6-0.2,6.4-0.3,8.6c0.1,0,0.2,0,0.4,0c1-2.3,2.1-5,3.9-8.8
				c4.1-9.2,8.2-18.5,11.9-27.9C-15399.8-20449.1-15397-20449.2-15391.5-20449.5z"/>
			<path class="st1" d="M-15372.1-20405c3.1-7.2,5.6-13.5,9.2-23.4c3.6-10,5.7-16.3,7.8-23.4c5.4-0.4,8-0.6,13.4-1
				c-2.6,7-4.8,13.3-8.7,23.2c-3.8,9.8-6.5,16.1-9.6,23.3C-15364.8-20405.7-15367.2-20405.5-15372.1-20405z"/>
			<path class="st1" d="M-15273.6-20458.7c13.6-2,21.9,5.7,12.8,18.7c-8.7,12.3-21,23.9-37.4,26.1c-9.4,1.3-14.2,2-23.6,3.2
				c3.6-6.3,7.2-13.1,11.9-22.7c4.7-9.6,7.9-16.9,10.2-22.8C-15289.3-20457.2-15284.1-20457.7-15273.6-20458.7z M-15273.6-20438.2
				c5-8.8,2.5-10.6-5.7-9.7c-4.3,0.5-8.4,1-12.3,1.5c-1.9,3.8-4,8-6.1,11.9c-2.4,4.7-4.3,8.1-5.8,10.9c4-0.2,7.1-0.7,11.5-1.3
				C-15284.2-20425.8-15278.9-20429-15273.6-20438.2z"/>
			<path class="st1" d="M-15164-20471.9c-0.8,1-2.2,2.9-3.4,4.5c-1.2,1.6-2.9,3.7-3.6,4.8c-10.4,1.5-20.8,3-31.2,4.5
				c-2,2.8-2.9,4.2-5,7c10.1-1.5,20.3-3.1,30.4-4.9c-1.7,2-5.4,6.5-7.2,8.6c-9.8,1.6-19.6,3.2-29.5,4.7c-2.2,2.9-3.4,4.3-5.7,7.2
				c10-1.7,19.9-3.5,29.8-5.4c-1.1,1.2-3.2,3.4-4.7,5.1c-1.4,1.5-3.3,3.5-4.3,4.7c-13.7,2.7-27.4,5.3-41.1,7.8
				c4.8-5.7,9.9-12.2,16.4-21.3c6.4-9,10.8-15.8,13.9-21.3C-15194.1-20467.8-15179-20469.8-15164-20471.9z"/>
		</g>
	</g>
</g>
<g>
	<g id="Group_548_10_" transform="translate(18174 20827)">
		<g class="st0">
			<path class="st1" d="M-15701.9-20301.5c-26.3,44.8-49.8,91.9-68,140.6c-11.7,0-23.4,0.1-35,0.5c-12.7,0.3-25.4,0.7-38.1,1.4
				c-1.5-18.7-1.7-37.6,0.7-56.2c1.4-10.1,3.6-20.3,6.5-30.1c-0.6,0-0.8,0.1-1.4,0.1c-5.9,10.4-11.8,20.8-17.6,31.3
				c-10.3,18.3-20.3,36.8-28.5,56.1c-10.5,0.2-21,0.4-31.4,0.7c-12,0.4-24.1,0.9-36.1,1.7c-3.9-41.6,7.1-82.1,27.2-118.4
				c18.2-3.1,36.4-6.1,54.6-8.9c-12.2,20.3-21.1,43.1-25.8,66.3c-1.6,7.5-2.9,14.9-3.5,21c0.4,0,0.7,0,1.1-0.1
				c3.6-6.4,8.1-14.1,13.1-22.1c14.8-24.2,31.7-46.9,48.4-69.9c10-1.1,20.1-2.3,30.1-3.5c7.7-0.9,20.6-2.6,26.6-3.4
				c-8.3,22.9-13.8,47.1-15.1,71.5c-0.1,8.7-0.5,16.5-0.7,22.7c0.4,0,0.7,0,1.1,0c2.5-6.6,5.6-14.3,10-23.3
				c11.6-25.2,24.5-49.7,37.5-74.2C-15731.4-20299.2-15716.7-20300.4-15701.9-20301.5z"/>
			<path class="st1" d="M-15580.8-20222c19.8,1.8,34.8,9.5,39.5,29.8c2.2,9.4,4.6,19.4,7.6,28.8c-17.2,0-34.4,0-51.5,0.1
				c-9.3,0-12-2.7-14.2-18.5c-2.2-15.4-6.7-26.1-23.8-25.2c-10.2,0.1-20.4,0.3-30.6,0.5c-0.9,14.6-1.7,29.1-1,43.7
				c-20.2,0.2-40.4,0.5-60.6,0.8c2.4-23.6,6-47.1,10.3-70.2c4.3-23.4,9.6-47,15.7-70.2c30.9-2,61.8-3.4,92.8-4.3
				c28.1-1.3,55.4,10.6,55.8,41.9c0.4,25-16.2,38.3-39.9,41.6C-15580.8-20222.7-15580.8-20222.4-15580.8-20222z M-15593.7-20255.9
				c1.2-13.5-10.1-16.8-21.5-16.4c-10.3,0.4-20.8,0.8-31.2,1.5c-1.7,10.9-5.9,31.3-4.5,32.8c1.9,2.2,22.5-0.2,33.7-0.4
				C-15605.4-20238.5-15594.8-20243.3-15593.7-20255.9z"/>
			<path class="st1" d="M-15513.7-20163.4c0.3-24-0.3-48-1-72c-0.7-24-1.6-48-3.3-72c17.2,0.2,34.4,0.6,51.5,1.2
				c2.9,23.8,5.8,47.6,8,71.3c2.2,23.8,4,47.8,5.4,71.7C-15473.3-20163.2-15493.5-20163.3-15513.7-20163.4z"/>
			<path class="st1" d="M-15380.7-20206.2c1.9,14.1,21.4,14.1,31.7,14.5c7.3,0.3,28,1.4,26.9-8.8c-1.4-13.5-30.4-14.4-41.1-15.7
				c-31.4-3.7-70.3-10-75.6-47.1c-5.5-38.3,33.7-43.4,62.9-41c33.4,2.7,74.8,10.5,88.7,45.6c1.1,2.7,2.1,5.4,3,8.2
				c-9.5-1.4-19.1-2.3-28.6-3c-7.5-0.5-14.5-0.8-18.8-0.9c-0.2-1.1-0.5-2.4-0.8-3.3c-3.8-12.2-21.1-13.2-31.4-13.6
				c-19.7-0.9-23.7,2-22.3,7.6c3.4,14,31.9,14.7,42.3,16.2c30.8,4.6,69.4,13.2,78.3,47.8c10.9,42.3-51.5,41.9-76.6,41.5
				c-30.5-0.5-86.2-0.3-89.6-42.2c-0.3-3.2-0.4-6.6-0.4-10.2c10.7,1.2,21.6,1.9,32.3,2.3c7.1,0.2,13.8,0.2,18.8,0
				C-15380.9-20207.5-15380.9-20207.1-15380.7-20206.2z"/>
			<path class="st1" d="M-15160.5-20273.9c3.9,4.7,10.2,12.3,15.4,19c5.1,6.6,10.8,14.6,14.7,19.9c-14.2-2-28.4-3.8-42.7-5.5
				c15.1,27.1,26.7,54.9,34.5,85c-10.5-0.9-21.2-1.3-31.8-1.7c-10.5-0.4-21.2-0.8-31.7-0.6c-3.8-30.8-14.9-60.5-27.5-88.6
				c-14.1-1.2-28.2-2.4-42.3-3.3c-2.2-5.9-5.9-14.8-9.2-22.1c-3.4-7.5-7.5-15.7-10.5-21.2
				C-15247.8-20287.8-15204.1-20281.4-15160.5-20273.9z"/>
		</g>
		<g class="st0">
			<path class="st1" d="M-15837.8-19990.1c-45.5-3.2-105.6-22.9-115.1-73.7c-10.1-53.6,55.4-65.1,95.4-65.1
				c32.7,0,89.8,1.7,91.6,46.4c0.1,2.2,0.2,4.4,0.2,6.6c-10.2-0.6-20.5-0.8-30.6-0.9c-9.6-0.1-19.2-0.2-28.8,0.1
				c-0.1-1.3,0-2.5-0.1-3.6c-0.8-14.9-22.5-15.6-33-15.6c-22.1,0.1-37.6,11-33.5,34.8c4.1,23.5,22.4,36.4,45.5,37.3
				c12.2,0.5,28.2-1.3,28.1-16.9c-13.9-0.4-27.8-0.8-41.7-0.9c-0.3-2.6-1.6-9.7-2.1-12.5c-0.8-5.1-1.4-9.5-2-13
				c17.6,0.7,35.2,1.1,52.8,1.5c15.3,0.3,30.6,0.5,45.9,0.4c2.7,18,7.9,43.9-4.4,59.8
				C-15784.4-19986.4-15816.9-19988.6-15837.8-19990.1z"/>
			<path class="st1" d="M-15615.3-19984c-1.1-5.2-3.8-14.8-7.7-26.4c-9.8-0.1-19.6-0.3-29.4-0.5s-19.6-0.4-29.4-0.6
				c-1.9,11.1-2.9,20.2-3,25.8c-20.2-0.7-40.3-1.4-60.5-2.3c10.3-47.6,25.2-93.1,41.5-138.9c32.8-0.2,65.5-0.3,98.3-0.4
				c15.8,48.8,35.4,97,56,143.9C-15571.4-19983.5-15593.3-19983.7-15615.3-19984z M-15633.8-20042c-4.5-12.6-8.8-25.7-13.7-37.8
				c-3.7-9.2-6.8-17.9-8.9-24.5c-2.1,6.6-5.1,15.1-8.3,24.8c-3.9,12-7.2,24.4-10.4,36.8c7.6,0.3,14.7,0.4,20.4,0.5
				C-15646.4-20042.2-15642.2-20042.1-15633.8-20042z"/>
			<path class="st1" d="M-15382.7-19986.2c3.8-19.4,7-38.9,9-58.4c1-9.7,2.1-19.5,3.1-29.3c-0.4-0.1-0.6-0.1-0.9-0.2
				c-3.7,9.6-8,19.3-13,28.3c-11.7,20.3-23.7,40.5-35.7,60.7c-10.9,0.3-16.4,0.4-27.3,0.7c-8.4-21.6-17.6-42.7-27.3-63.7
				c-4.1-9.1-7.5-18.6-10.6-28.1c-0.4,0.1-0.6,0.1-1,0.2c0.5,10.1,0.9,20.2,0.7,30.3c-0.3,20.6-0.9,41.4-1.3,62
				c-16,0.2-32,0.3-48,0.3c1.2-24,1.4-48.2,1.5-72.2c0.1-23.9,0.1-47.9-0.7-71.8c26,0,52,0.1,78,0.1c8.4,19.3,16.9,38.6,25.3,57.9
				c2.6,6.6,5.5,15,8.2,23.3c3.5-8.4,7.2-16.8,10.1-23.4c9.3-18.9,18.4-37.9,26.4-57.4c23.5,0.1,47,0.3,70.5,0.5
				c0.4,23-0.5,46.2-2.7,68.8c-2.2,23-5.9,46.2-10.2,69.2C-15346.6-19987.7-15364.6-19986.9-15382.7-19986.2z"/>
			<path class="st1" d="M-15131.1-20124.5c0.1,3.6,0.3,9.9,0.3,15.1c0.1,5.3-0.1,12.1,0.1,15.9c-31.4,0.1-62.8,0.2-94.2,0.5
				c-0.3,7.1-0.5,10.7-1.2,17.8c30.7-0.5,61.4-1,92-2.3c-1,6.3-3.6,20.6-5.2,27.4c-30.2,0.9-60.3,1.8-90.5,2.8
				c-1.3,7.4-2.1,11.1-3.8,18.5c30.6-1.4,61.2-3,91.7-5c-1.5,4.2-4,11.3-6.4,17.4c-2.1,5.3-5,11.9-6.8,16.2
				c-48.6,4.1-97.2,7.6-145.8,10.3c6.8-22.3,11-45.4,13.5-68.2c2.5-22.4,3.4-45.4,1.4-68.2
				C-15234.3-20125.8-15182.7-20125.2-15131.1-20124.5z"/>
		</g>
		<g class="st0">
			<path class="st1" d="M-15840.7-19963.6c1.3,14,5,27.7,9.5,41c-1.9-0.3-4.5-0.7-7.4-1.1c-3.7-0.5-6.9-0.9-8.2-1
				c-3.5-4.1-11.3-13-17.7-21c-2.6-3.2-5.3-6.7-7.5-9.6c-0.1,0-0.1,0-0.2,0c1.1,2.9,2.3,6.3,3.3,9.2c2.3,6.9,5.7,15,7.6,19.2
				c-1.3-0.2-3.9-0.7-5.9-1c-4.1-0.6-6.6-1-7.9-1.1c-13.8-13.8-26.9-28.3-40.4-42.4c6,0.7,9,1,14.9,1.7c6.3,8.3,12.9,16.3,19.7,24.2
				c2.6,2.9,4.7,5.5,6.6,7.5c0.1,0,0.2,0,0.3,0c-0.9-2-1.8-4.3-3-7.2c-3.2-7.7-6.6-18.4-8.4-22.9c2.1,0.3,6.5,0.7,9,1
				c2.3,0.2,5.4,0.5,7.1,0.7c5.8,8.6,12.1,16.8,18.7,24.8c2.8,3.4,4.8,5.9,6.4,7.9c0.1,0,0.2,0,0.4,0c-0.8-1.9-1.8-4.3-2.9-7.4
				c-2.9-8.2-6.2-19.3-7.6-23.8C-15848.8-19964.3-15846.1-19964.1-15840.7-19963.6z"/>
			<path class="st1" d="M-15763-19913.1c-15.4-1.8-30.7-12.2-37.1-26.3c-6.3-13.9,4.9-21.9,18.3-20.5c14.7,1.6,29.9,11.2,35.6,25.3
				C-15740.8-19921.4-15749.3-19911.5-15763-19913.1z M-15758.8-19935.5c-3-7.9-8.6-12.3-18.9-13.2c-10.3-0.8-13.1,2.8-9.7,10.7
				c3.4,7.8,9.5,12.6,19.4,13.6C-15758-19923.5-15755.9-19927.7-15758.8-19935.5z"/>
			<path class="st1" d="M-15672.5-19925c7.2,1.2,10.5,3.1,13.6,9.6c1.9,3.9,3.6,7.5,4.6,9.5c-4.5-0.2-6.7-0.4-11.2-0.6
				c-1.9-0.1-2.3-0.7-5-6.4c-3.1-6.6-4.6-7.9-10.9-8.2c-4.1-0.2-6.2-0.4-12.6-0.7c1.6,5.5,3.2,10.4,4.5,13.8
				c-5-0.3-7.4-0.5-12.4-0.9c-2.1-6.6-3.9-13-6.7-22.7c-2.7-9.6-4.4-16.2-6.1-22.7c10,0.5,19.9,1,29.9,1.5c9.5,0,19.6,4.6,21.4,14.8
				c1.4,8-1.1,12.1-9.1,13C-15672.5-19925.1-15672.5-19925-15672.5-19925z M-15682.7-19931.1c6.3,0.3,8.5-1.4,7.6-5.4
				c-1-4.6-4.1-5.8-10.7-6.1c-2.6-0.1-9.8-0.5-13.8-0.5c0.9,3.8,1.7,10.2,2.8,11.1
				C-15695.8-19931.2-15688.5-19931.4-15682.7-19931.1z"/>
			<path class="st1" d="M-15612.1-19950.6c0.2,3.5,1,12.7,2.2,23.2c0.4,3.9,0.9,7.8,1.3,11.2c6.1,0.2,14.9,0.4,22.1,0.3
				c0.1,2,0.2,4.1,0.4,6.2c0.2,2.1,0.4,4.2,0.6,6.2c-11.2-0.3-22.4-0.6-33.6-0.9c-0.6-4.3-1.8-13.3-3.1-23.2
				c-1.4-10.7-2.4-18.8-3-23.2C-15620.1-19950.7-15617.4-19950.7-15612.1-19950.6z"/>
			<path class="st1" d="M-15527-19949.8c14.7-1.1,24.1,7.8,23.1,22.4c-1,14.5-9.1,24.5-24.3,24.4c-9.4,0.1-14.1,0.1-23.6,0
				c0-6.5-0.1-13.4-0.3-23.3c-0.2-9.9-0.3-17.4-0.5-23.5C-15542.4-19949.8-15537.3-19949.8-15527-19949.8z M-15516.4-19927
				c0.4-9.2-3.1-11.6-11.2-11.5c-4.3,0-8.2,0.1-12,0.3c-0.1,3.9-0.1,8.3-0.2,12.4c0,4.9,0,8.4,0,11.3c4.1,0.3,7.1,0.2,11.5,0.1
				C-15520.6-19914.5-15516.8-19917.3-15516.4-19927z"/>
			<path class="st1" d="M-15394.3-19953.2c-8.2,15.3-15.9,31-23.6,46.6c-1.8,0-4.4,0.1-7.3,0.3c-3.7,0.2-7,0.4-8.3,0.6
				c0-4.3-0.2-13.8-0.5-22.3c-0.1-3.4-0.2-7.2-0.3-10.3c-0.1,0-0.1,0-0.2,0c-1.2,3.3-2.6,7.2-4.1,10.7c-3.4,8-7.3,17.5-9.4,22.6
				c-1.3,0-3.8,0-5.8,0.1c-4.1,0.2-6.6,0.3-8,0.4c-1.7-15.5-3.5-31-7.3-46.1c6-0.1,9-0.2,14.9-0.4c0.1,3.5,1.2,17.4,1.8,26.5
				c0.2,3.2,0.3,6,0.5,8.2c0.1,0,0.2,0,0.3,0c0.9-2.3,2-5.1,3.2-8.5c3.3-8.8,6.7-17.6,9.4-26.6c2.1,0,6.4-0.1,9-0.2
				c2.3-0.1,5.4-0.2,7.2-0.3c0,4.7,0.2,17.1,0.6,26.4c0.2,3.5,0.1,6.2,0.1,8.3c0.1,0,0.2,0,0.4,0c0.8-2.2,1.8-4.8,3.4-8.4
				c3.6-8.9,7.2-17.8,10.5-26.8C-15402.5-19952.8-15399.7-19952.9-15394.3-19953.2z"/>
			<path class="st1" d="M-15372.2-19909.8c2.5-7,4.5-13,7.4-22.6c2.9-9.7,4.6-15.7,6.2-22.6c5.2-0.3,7.9-0.5,13.1-0.8
				c-2.1,6.8-3.9,12.9-7,22.5c-3.1,9.5-5.2,15.6-7.6,22.6C-15364.9-19910.3-15367.3-19910.1-15372.2-19909.8z"/>
			<path class="st1" d="M-15278.7-19960.5c13.9-1.7,22,5.1,14.7,18.7c-6.8,12.8-18.9,23.8-34.5,24.9c-9.4,1.1-14.1,1.6-23.6,2.6
				c2.9-6.1,5.8-12.7,9.5-22c3.7-9.4,6.3-16.4,8.1-22.1C-15294.1-19959.3-15288.9-19959.7-15278.7-19960.5z M-15276.5-19940.3
				c4-8.5,1.3-10.4-6.8-9.7c-4.3,0.4-8.2,0.8-12.1,1.3c-1.5,3.7-3.2,7.8-4.9,11.6c-1.9,4.6-3.4,7.9-4.6,10.6c4-0.1,7.1-0.6,11.4-1
				C-15285.7-19928.3-15280.7-19931.3-15276.5-19940.3z"/>
			<path class="st1" d="M-15171.1-19971.1c-0.7,1-1.8,2.9-2.7,4.4c-1,1.6-2.3,3.7-2.9,4.7c-10.2,1.2-20.5,2.4-30.7,3.6
				c-1.6,2.8-2.4,4.1-4,6.9c10-1.2,20-2.4,30-3.9c-1.3,1.9-4.4,6.4-5.8,8.5c-9.7,1.2-19.5,2.5-29.2,3.7c-1.8,2.9-2.7,4.3-4.5,7.1
				c9.9-1.3,19.8-2.8,29.6-4.3c-0.9,1.1-2.6,3.4-3.8,5c-1.1,1.5-2.6,3.5-3.5,4.7c-13.7,2.2-27.4,4.3-41.1,6.2c3.9-5.6,8-12,13.1-21
				c5.1-8.9,8.6-15.6,11.1-20.9C-15200.7-19967.8-15185.9-19969.4-15171.1-19971.1z"/>
		</g>
	</g>
</g>
<g>
	<g id="Group_548_6_" transform="translate(18174 20827)">
		<g class="st0">
			<path class="st1" d="M-16782.8-21358.5c-8.2,41.1,29.4,116.8-17.7,140.9c-10.3-0.2-20.6-0.9-30.8-1.8c-11.7-1-23.6-2.4-35.4-3.7
				c2.6-15.6-1.8-30.6-6.3-45.4c-3.9-12.5-8.1-24.9-12.1-37.3c-0.6-0.1-0.9-0.1-1.4-0.2c0.8,11.8,1.9,23.7,0.7,35.4
				c-3.2,16.7-9,28.6-19,42.3c-9.9-1.4-19.9-3-29.7-4.3c-11-1.4-22.2-2.7-33.4-3.4c-10.1-40.8-21.4-82.1-35.4-121.8
				c18.1-0.1,36.1-0.1,54.2-0.1c3.1,24.7,11.5,48.9,18.5,72.7c2.3,8.3,4,15.8,5.5,21.9c0.5,0.1,0.7,0.1,1.2,0.2
				c1.5-5.6,3.3-12.4,4.3-20.5c2.6-24.7,1.4-49.6,3.7-74.3c10.1,0.3,20.1,0.4,30.2,0.4c7.7,0,20.4-0.1,26.3-0.3
				c6.6,31.6,21.6,61.7,33.4,91.6c4.6,11,7.2,19.5,8.1,24.8c0.4,0.1,0.6,0.1,1.1,0.1c1.5-5.1,1.6-13.1,1.1-23.7
				c-2.4-30.9-12.3-61.7-11-92.8C-16812.2-21357.7-16797.5-21357.8-16782.8-21358.5z"/>
			<path class="st1" d="M-16655.9-21284.3c15.8-1.5,28.7,7.1,32.3,22.5c2.1,8.8,4.7,18.9,6.4,24c-14,0.1-27.9,0.6-41.9,2.1
				c-7.2,0.8-9-1-10.1-12.5c-0.9-9.9-4.8-21.1-17-15.6c-8.5,2.7-12.6,4.2-20.9,7.1c-0.7,10.2-1.7,19.3-4.2,29.2
				c-15.1,2.7-30.2,5.2-45.4,7.3c13.7-16.4,10.4-33.9,6.3-53.3c-6-27.7-16.9-56.6-20-85.6c30.7-2.3,61.3-5.7,91.9-8.3
				c26.9-2.1,55.8,6.3,55.4,38.3c-0.3,22.5-11.2,36.9-32.8,43.9C-16655.9-21284.9-16655.9-21284.7-16655.9-21284.3z
				 M-16669.1-21316.9c-0.7-12.7-9.4-17.2-21.3-15.3c-5.2,0.8-18.3,3.1-27,5c2.2,12.9,4.4,37,6.8,38.7c1.4,0.9,15-3.8,25.5-6.3
				C-16674-21297.5-16668.5-21305.8-16669.1-21316.9z"/>
			<path class="st1" d="M-16600.5-21238.5c1-20.4,0.7-40.9,0.7-61.4c0-23.6,0-47.2-0.6-70.8c16.9-1,33.8-2.7,50.6-4.8
				c-0.6,24.8-0.1,49.7,0.1,74.5c0.2,19,0.6,37.9-1.6,56.8C-16567.6-21241.6-16584-21239.6-16600.5-21238.5z"/>
			<path class="st1" d="M-16484-21275.4c0.4,10.9,17.9,9.3,24.9,9.2c8.4-0.2,24.1,0.3,25.4-6.2c1.9-9.1-25.1-12.3-33.6-13.1
				c-32.2-3-61.5-11.6-62-48.6c-0.5-39.6,34.9-52,69.2-53.9c34.8-1.9,71.6,6,72.2,47c0.1,3.3,0.1,6.7,0,10.2
				c-6.3-1.2-17.1-2.5-26.2-2.9c-6.9-0.3-13.5-0.2-17.5-0.1c0.1-1.4,0-3.1,0.1-4.3c0.2-13.7-16.5-14.9-26.4-14.6
				c-7.6,0.3-22.4,1.5-22.7,12.1c-0.4,15.2,26.3,15.6,35.9,16.7c29.2,3.4,60.1,16.2,60.1,50c0,27-63.1,17.7-78.3,18.7
				c-14.7,1-68.5,14.4-66.4-14.8c0.2-2.4,0.3-5.2,0.6-8.4c9.3,0.9,18.7,1.3,28,1.3c6.2,0,12-0.2,16.5-0.5
				C-16484-21276.6-16484-21276.1-16484-21275.4z"/>
			<path class="st1" d="M-16245.2-21357.8c-0.3,4.8-0.3,12.3-0.3,19c0,6.6,0,14.6,0.3,19.8c-13.1-0.4-26.1-1.1-39.2-2.1
				c0.1,27.2,0,54.4,0.1,81.5c-7.2-1.1-19.2-2.4-27.7-3.5c-9.4-1.2-18.8-2.5-28.2-3.5c7.1-25.4,3.7-53.8,3.5-79.8
				c-13.2-1.3-26.3-2.6-39.5-3.7c0-7.2-0.2-18.1-0.3-26.5c-0.1-8.6-0.2-17.3-0.4-22.7
				C-16333.2-21370.6-16290.1-21359.2-16245.2-21357.8z"/>
		</g>
		<g class="st0">
			<path class="st1" d="M-16887.4-21084.9c-42.4,0.1-82.5-16.2-82.6-64.2c0-50.7,42.6-60.3,85-58.1c26.6,1.4,73.9-0.1,73.7,37.7
				c0,1.9,0,3.8-0.2,5.8c-7-0.4-16.5-0.5-25.6-0.5c-9.3,0-17.9,0.2-24.2,0.5c0-1.1,0.2-2.2,0.2-3.2c-0.1-13.1-17.3-13.7-26.9-13.8
				c-20.7-0.2-30.8,12.3-30.7,32.5c0.1,20.6,11.5,32.9,32.5,32.8c11.8-0.1,24.9-2.9,27.2-16.3c-11.8,0.1-23.7,0.1-35.5,0.5
				c0.2-2.4,0.2-8.8,0.2-11.4c0-4.6,0-8.6-0.2-11.8c14.8,0.2,29.6,0.3,44.3,0.3c12.8,0,25.7,0.1,38.6-0.3
				c1.1,17.5,1.6,38.7-11.2,52.4C-16838.2-21085.4-16866.6-21084.9-16887.4-21084.9z"/>
			<path class="st1" d="M-16689.2-21107.2c-0.6-5.3-2.4-14.9-5.1-23.2c-9.3,2-18.4,4.1-25.4,5.8c-6.7,1.6-16,3.7-25.4,5.8
				c-2.7,9.8-4.8,18.5-5.6,23.9c-17.8,3.1-35.5,5.6-53.6,6.9c9.2-21.5,17.1-43.6,25.6-65.5c6.4-16.7,10.7-36.8,22.2-50.9
				c26.6-0.9,53.2-2.1,79.8-2.9c10.2,34.3,34.6,59.1,46.1,92.8C-16650.4-21113.8-16669.9-21110.9-16689.2-21107.2z M-16702-21149.4
				c-3.4-7-6.8-14.2-10.4-21.4c-3-5.9-5.4-12.3-7.2-17.8c-1.8,5.5-4.3,11.9-7.2,18.8c-3.3,7.8-6.9,16.6-10.2,25.9
				c6.4-0.9,12.5-1.8,17.3-2.6C-16712.6-21147.7-16709.1-21148.3-16702-21149.4z"/>
			<path class="st1" d="M-16482.9-21092.4c0.8-20.8-0.5-40.6-3-61.1c-1.6-12.7-3.1-25.6-4.4-38.4c-0.3,0-0.5-0.1-0.8-0.1
				c-1,12.2-1.8,24.5-4,36.6c-4.6,21.2-11.9,37.6-21,56.9c-9.7-2-14.5-3-24.2-5c-7.8-19.6-16.2-38.6-28.3-55.9
				c-3.5-5.2-7.2-11.3-10.2-17.1c-0.3,0.1-0.4,0.2-0.7,0.3c0.8,6.1,1.7,12,2.3,18.2c1.4,15.9,1.5,32,1.9,48
				c-14.2-2.1-28.2-3.7-42.6-4.6c0.5-16.1,1.1-32.1,0.9-48.2c-0.1-15.1-0.3-30.2-0.7-45.2c21-2,40.6-6.6,60.8-12.8
				c6.4,14.2,13.3,28,20.7,41.7c2.9,5.8,6.4,13.7,10,22c1.5-8.3,2.9-17.2,4.1-24.6c3.9-18.9,6.2-40.4,17.8-56.4
				c18.6-5.1,36.4-8.4,55.6-9.6c-7.8,22.8,1.8,54.3,5.2,77c4.1,27.7,7.4,55,8.7,83C-16451-21088-16467.1-21089.9-16482.9-21092.4z"
				/>
			<path class="st1" d="M-16282.6-21212c-0.2,3.3-0.5,9.2-0.4,14.3c0.1,5.3,0,11.6,0.3,15.4c-29.3-5.9-57.7-15.4-86.5-23.6
				c0.6,8.1,1,12.7,2,22c27.6,6.3,55,13.6,83.1,17.5c0.1,9.7,0.4,19.4,0.7,29c-26.6-2.3-53.1-6-79.6-8.9c1.1,9.9,1.6,14.8,2.3,23.5
				c26.5,1,53,2.1,79.5,2.4c-0.1,4.2-0.2,10.8-0.2,16.8c0,5.1,0,11.5,0.2,15.7c-43.1,0-86.2,0-129.3,0c1.1-27.6-2.8-54.3-6.7-81.6
				c-3.3-23.5-11.2-52.2-6.1-76.2C-16375.6-21237.8-16329.9-21221.5-16282.6-21212z"/>
		</g>
		<g class="st0">
			<path class="st1" d="M-16899.9-21059.8c-4.7,12.8-8.6,26-12.6,39c-1.8-0.1-4.4-0.1-7.3-0.1c-3.7,0-6.9,0.1-8.2,0.1
				c-0.9-3.7-3.1-11.8-4.8-19c-0.7-2.9-1.4-6.1-2-8.8c-0.1,0-0.1,0-0.2,0c-0.6,2.8-1.3,6-2.2,8.9c-1.9,6.7-4.1,14.6-5.3,18.8
				c-1.3-0.1-3.8-0.1-5.8-0.1c-4.1,0-6.6,0.1-8,0.1c-4.1-13-7.8-26.2-12.7-39c5.5,0,8.3,0,13.8,0c0.5,3,3.2,14.7,5.1,22.4
				c0.7,2.7,1.2,5,1.7,6.9c0.1,0,0.2,0,0.3,0c0.5-1.9,1.1-4.3,1.8-7.1c1.8-7.5,4.5-18,5.1-22.3c1.9,0.1,5.9,0.1,8.3,0.1
				c2.1,0,4.9,0,6.6-0.1c0.7,4,3,14.6,5.3,22.5c0.9,3,1.4,5.3,1.8,7.1c0.1,0,0.2,0,0.4,0c0.4-1.8,0.8-4.1,1.6-7.1
				c1.8-7.7,4.1-18.3,4.9-22.5C-16907.5-21059.8-16904.9-21059.8-16899.9-21059.8z"/>
			<path class="st1" d="M-16845.2-21019.6c-12.9,0.5-25.7-7.3-25.7-21.1c0-13.7,13.1-20.8,25.7-20.3c12.5,0.4,25.8,5.9,25.8,20.3
				C-16819.3-21026-16832.3-21020.1-16845.2-21019.6z M-16831.5-21040.4c0-6.9-4-10.6-13.6-10.6c-9.6,0-13.7,3.5-13.7,10.6
				c0,7,4,10.9,13.7,10.9C-16835.4-21029.6-16831.5-21033.6-16831.5-21040.4z"/>
			<path class="st1" d="M-16750-21036.9c6.8,0.6,9.6,2.3,11.3,8c1,3.5,1.9,6.5,2.5,8.1c-4.5,0-6.7,0-11.1,0c-1.9,0-2.2-0.4-3.4-5.3
				c-1.5-5.7-2.7-6.8-8.8-6.7c-4,0.1-6,0.1-12.3,0.2c0.1,4.9,0.3,9,0.6,11.8c-5,0-7.4,0-12.4,0c0.1-5.5,0.2-11,0.2-19.6
				c0-8.5-0.1-14.4-0.2-20.4c11-0.6,16.6-1.1,27.6-2.1c11.4-1.1,17.4,3,17.4,12.3c0,8-3.3,12.1-11.4,13.5
				C-16750-21037-16750-21036.9-16750-21036.9z M-16758.5-21041.8c6-0.2,8.5-2.1,8.5-5.8c0-4.4-2.7-5.2-8.9-4.9
				c-2.5,0.1-9.2,0.5-12.9,0.9c0,3.5-0.5,9.6,0.1,10.1C-16771.4-21041-16764.1-21041.6-16758.5-21041.8z"/>
			<path class="st1" d="M-16688.9-21069.9c-0.2,4.1-0.3,14.8-0.3,26.1c0,4.1,0,8.2,0,11.6c5.9-0.1,14.6-0.1,21.6-0.5
				c-0.1,2-0.1,4.1-0.1,6.1c0,2,0.1,3.9,0.1,5.7c-11.2,0-22.4,0-33.5,0c0-3.7,0.2-12.1,0.2-22.5c0-11.2,0-20.4-0.2-25.3
				C-16696.3-21069.1-16693.8-21069.4-16688.9-21069.9z"/>
			<path class="st1" d="M-16610.3-21073.4c16.3,0.2,22.4,13.3,22.5,27.9c0.1,15.1-6.8,25-22.7,24.6c-9.4,0-14.1,0-23.5,0
				c0.2-5.6,0.1-12.5,0.2-23.9c0-9.6,0-19.1-0.2-28.7C-16624.5-21073.7-16619.8-21073.6-16610.3-21073.4z M-16599.7-21045.3
				c0-10.6-3.3-13.9-10.9-13.9c-4-0.1-7.7,0-11.3,0.3c-0.1,4.9-0.1,10.2-0.1,14.8c0,5.6,0,9.4,0.1,12.4c4,0.3,7,0.1,11.2,0.1
				C-16603.3-21031.8-16599.7-21034.2-16599.7-21045.3z"/>
			<path class="st1" d="M-16487.8-21062.4c-4.6,13.8-8.3,27.8-12.6,41.6c-1.8-0.1-4.4-0.1-7.3-0.1c-3.7,0-6.9,0-8.2,0.1
				c-0.9-3.7-3.1-12.3-4.8-20.8c-0.7-3.4-1.4-7.3-2-10.6c-0.1,0-0.1,0-0.2,0c-0.6,3.3-1.3,7.2-2.2,10.6c-1.9,7.8-4.1,16.5-5.3,20.7
				c-1.3-0.1-3.8-0.1-5.8-0.1c-4.1,0-6.6,0-8,0.1c-4.8-16.1-8.1-32.6-12.7-48.8c5.5,0.6,8.3,0.8,13.8,1.4c1.4,9.7,3.1,19.3,5.1,28.8
				c0.7,3.3,1.2,6,1.7,8.1c0.1,0,0.2,0,0.3,0c0.5-2.2,1.1-4.9,1.8-8.2c1.8-8.8,4.5-21.9,5.1-27.2c1.9,0.3,5.9,0.7,8.3,1
				c2.1,0.2,4.9,0.5,6.6,0.7c0.7,4.9,3,17.8,5.3,26.8c0.9,3.4,1.4,5.9,1.8,7.8c0.1,0,0.2,0,0.4,0c0.4-1.9,0.8-4.3,1.6-7.7
				c1.8-8.5,4.1-20.6,4.9-25.4C-16495.4-21063.1-16492.8-21062.8-16487.8-21062.4z"/>
			<path class="st1" d="M-16454.8-21020.7c0.2-5.8,0.2-11.1,0.2-19.5c0-8.4,0-13.9-0.2-20c4.8,0.2,7.3,0.3,12.1,0.3
				c-0.2,5.9-0.2,11.2-0.2,19.6c0,8.2,0,13.5,0.2,19.5C-16447.5-21020.8-16450-21020.8-16454.8-21020.7z"/>
			<path class="st1" d="M-16381.1-21059.8c12.7-0.2,22.5,5.4,22.5,18.9c0,13.7-9.3,20.4-22.7,20.1c-9.4,0-14.1,0-23.5,0
				c0.2-5.4,0.2-11.2,0.2-19.4c0-8.3,0-14.5-0.2-19.6C-16395.3-21059.8-16390.5-21059.8-16381.1-21059.8z M-16370.5-21040.7
				c0-7.7-3.3-9.7-10.9-9.7c-4,0-7.7,0.1-11.3,0.2c-0.1,3.3-0.1,6.9-0.1,10.3c0,4.1,0,7,0.1,9.4c4,0.3,7,0.2,11.2,0.2
				C-16374-21030.3-16370.5-21032.6-16370.5-21040.7z"/>
			<path class="st1" d="M-16281.8-21059.8c-0.1,1-0.1,2.8-0.1,4.3c0,1.5-0.1,3.5,0.1,4.6c-9.6-0.1-19.2-0.1-28.9-0.1
				c0,2.6,0,3.9,0,6.5c9.4,0,18.9,0,28.3-0.2c-0.1,1.9-0.1,6.2-0.1,8.2c-9.4-0.1-18.9-0.2-28.3-0.2c0,2.7,0,4,0,6.7
				c9.6,0,19.2,0,28.9-0.1c-0.1,1.1-0.1,3.2-0.1,4.8c0,1.5,0,3.4,0.1,4.5c-13.7,0-27.3,0-41,0c0.2-5.2,0.2-11.2,0.2-19.5
				c0-8.3,0-14.5-0.2-19.5C-16309.1-21059.8-16295.4-21059.8-16281.8-21059.8z"/>
		</g>
	</g>
</g>
</svg>
