<?xml version="1.0" encoding="utf-8"?>
<!-- Generator: Adobe Illustrator 25.0.1, SVG Export Plug-In . SVG Version: 6.00 Build 0)  -->
<svg version="1.1" id="Layer_1" xmlns="http://www.w3.org/2000/svg" xmlns:xlink="http://www.w3.org/1999/xlink" x="0px" y="0px"
	 viewBox="0 0 909.7 409.3" height="100%" width="100%" style="enable-background:new 0 0 909.7 409.3;" xml:space="preserve">
<style type="text/css">
	.st0{enable-background:new    ;}
	.st1{fill:#FFFFFF;}
</style>
<g>
	<g id="Group_548_3_" transform="translate(18174 20827)">
		<g class="st0">
			<path class="st1" d="M-17731.1-21277.9c-13.6,41.9-14.1,87-35.4,126.9c-9.8-1.6-19.5-3.4-29.3-5.1c-10.5-1.8-21.2-3-31.9-2.7
				c-0.8-16,0.3-28.8,2.9-44.9c1.6-8.6-0.6-19.8-4.3-27.6c-0.6,0-0.8,0-1.4,0c1.6,8.7-0.9,20.4-6.2,27.7c-10.5,15-17.8,28.2-25,44.9
				c-5.4,0.1-16.3-0.1-26,0.1c-10,0.1-19.9,0.3-29.9,0.7c-10.3-40.3-20.1-80.6-33.9-120c18.1,0,36.2,0,54.3,0
				c3.9,23.1,16.4,44,19.2,67.4c0.7,6.9,0.5,13.3,0.5,18.5c0.4,0,0.6,0,1,0c2.8-5.2,6.5-11.4,9.5-18.1c9.6-21.1,2.3-45.5,3-67.7
				c10,0.2,20.1,0.3,30.1,0.3c7.7,0,20.3-0.2,26.2-0.3c5.6,23.7,25.1,45.1,23.8,70.2c0.1,7.4-1.4,13.7-2.3,18.9c0.4,0,0.5,0,0.9,0.1
				c2.8-5.3,6.3-11.3,9.4-19.2c8.9-22.1-0.9-47,0.7-70C-17760.4-21277.8-17745.8-21277.8-17731.1-21277.9z"/>
			<path class="st1" d="M-17616.8-21210.3c18.6,2.3,33.5,11,42.4,27.7c5.1,9.7,7.4,19.7,7.8,24.9c-14.7-0.4-28.9-1.6-43.5-3.8
				c-7.7-1.3-9-4-12.9-16.9c-3.6-12-10.5-22-24.2-21.3c-9.8-0.2-14.6-0.2-24.4,0.6c0.6,9.9-0.4,22.8,3.6,32.2
				c-18.6,2.6-34.2,10.3-52.1,15.4c1.6-21.6,2.6-43.8,2.9-65.2c0.4-20.2-1.5-40.8-1.8-61.3c30.7,0,61.4,0,92.1,0
				c20.1,0.7,55.7,3.9,43.5,32.6c-7.1,16.7-13.2,31.9-33.8,34.1C-17616.9-21210.8-17616.9-21210.6-17616.8-21210.3z
				 M-17629.2-21237.7c2.1-10.7-2.2-13.1-15.6-12.7c-5,0.1-17.7,0.7-26.4,1.2c-0.6,9.1-2,25.9-0.8,27.1c1.1,1.2,15.2-0.5,25.3-1
				C-17635.2-21223.6-17631.1-21228.2-17629.2-21237.7z"/>
			<path class="st1" d="M-17549.5-21156c6.2-20.1-10.5-47.6-12.4-64.9c-2-18.4,12.1-36.9,13.4-57.1c17.1,0,34.2,0.1,51.3,0.1
				c-1.5,21-9.1,41.9-7.9,61.9c1.2,19.4,13.2,48.9,7.5,69.6C-17514.9-21149.8-17532.1-21153.3-17549.5-21156z"/>
			<path class="st1" d="M-17433-21183.2c0.4,13.6,15.9,15,26.2,13.7c18.9-2.3,23.3-5.4,22.6-10.5c-1.8-11.9-24.4-13.2-33.4-14.5
				c-23.3-3.4-67-12.9-62.8-45.3c4.6-35.5,45.3-40.9,74.3-40.9c35.6,0,72.1,3.2,66.9,47.2c-0.4,3.5-0.8,7-1.3,10.6
				c-6.1-1.1-16.5-2.5-25.3-3.7c-6.7-0.8-13-1.5-16.9-1.9c0.3-1.2,0.4-2.7,0.5-3.7c1.6-12.9-14.9-15.4-24.1-15.8
				c-18-1-23.2,2.2-23.3,7.5c-0.2,12.5,24.5,15.7,33.6,18.2c20,5.6,54.8,15.6,59,40.4c5.1,30.3-49.7,37.2-68.2,40.1
				c-32.8,5.1-67.7,4.6-72.6-35.7c-0.4-3.6-0.8-7.4-1-11.4c9.5,2.1,19.7,3.6,29.3,3.7c6.3,0.1,11.9-0.2,16.3-0.6
				C-17433.1-21184.8-17433.1-21184.3-17433-21183.2z"/>
			<path class="st1" d="M-17193.3-21277.8c-0.3,4.8-0.3,12.3-0.3,19c0,6.6,0,14.6,0.3,19.8c-13.7,0.4-26.8,1.6-40.4,3.3
				c-0.4,26.4-0.2,53.1,1.5,79.5c-7.2,0-19,0.8-27.4,1.3c-8.4,0.5-19.9,1.2-27.6,1.9c-0.4-24.7-3.3-48.9-1.6-73.6
				c-13.4,2.1-26.9,3.6-40.4,3.8c1.2-9.9,2.4-19.7,3.6-29.6c1.2-10,2.1-20,2.1-25.5C-17280.2-21277.6-17236.8-21278-17193.3-21277.8
				z"/>
		</g>
		<g class="st0">
			<path class="st1" d="M-17835.5-21005c-44.9,0.2-79.8-16.6-83-64.5c-3.2-47.2,26.6-67.8,71.1-69.7c30.1-1.3,72.2,7,80.3,41.4
				c0.4,1.9,0.9,3.8,1.3,5.7c-7.6,0.1-17.8,0.2-27.5,0.4c-9.8,0.2-18.8,0.4-25.1,0.9c-0.5-1.4-0.8-2.9-1.2-4.1
				c-4.1-13.4-19.2-17.8-31.7-17.1c-23.5,1.4-21.6,24.5-17.8,41.9c4.5,20.5,11.3,34.5,34.8,34.5c12.2,0,24.7-3.7,27.1-17.3
				c-11.8,0.9-23.6,1.2-35.4,1.5c0.2-2.4-0.5-9.3-1.1-12.3c-1.1-5.4-2.6-10.5-4-14.6c14.8,0.1,29.6,0.2,44.4-0.7
				c13.2-0.8,26.4-1.9,39.6-3.7c5.8,18.1,4.2,41.9-7.5,57.6C-17785.6-21005.5-17813.5-21005.1-17835.5-21005z"/>
			<path class="st1" d="M-17638.2-21008.8c-2.6-9.3-6.2-18.3-9.6-27.3c-8.1-1.1-16.2-2.2-22.6-2.8c-6.1-0.6-14.7-1.4-23.9-1.6
				c-1.7,10.3-3.4,20.6-4.7,30.9c-17.9-0.1-35.7,0.2-53.5,0.6c14.5-41,20.3-87.2,41.9-125.4c28-8.7,52.2-12.5,80.3-2.9
				c2.5,20.2,6.4,41.1,10.8,61c6.3,28.5,20.9,46,38.8,68.6C-17600-21007.8-17619.1-21008.2-17638.2-21008.8z M-17656.6-21068.1
				c-0.9-12.1-1.7-24.3-3.5-35.9c-1.3-8.5-2.6-16.6-3.3-22.9c-2.7,6.3-6.3,13.8-10.2,22.3c-4.7,10.2-9,20.9-13.2,31.5
				c6,0.6,11.4,1.3,15.5,2C-17665.2-21070.1-17662.3-21069.4-17656.6-21068.1z"/>
			<path class="st1" d="M-17433-21007.8c-4.9-16-15-33.1-14.3-49.8c0.3-7.4,0.6-16.7,1.1-25.2c-0.4-0.1-0.5-0.1-0.9-0.1
				c-3.4,9-6.8,17.7-10.2,24.3c-8,17.2-7.2,32.3-9,50.9c-9.7,0-14.5,0-24.2,0c-15-16.8-34.9-32.3-43.5-53.8
				c-3.2-6.6-6.6-15.2-9.4-23.5c-0.3,0.1-0.5,0.1-0.8,0.2c0.5,8.3,0.8,16.8,1.1,25.3c0.6,19.7,10.8,33.7,17.6,51.8
				c-14.2,0-28.4,0-42.6,0c-6.2-22-15.5-36.3-15.5-60.2c0-18.1-4.3-42.7,3.6-59.9c21.8,0.3,43.5,1.5,65.3,2.8
				c-0.1,15.4,10.8,32.3,17,45.9c2.4,5.6,5.1,12.6,7.8,19.7c2.6-7,5.3-14.1,7.5-19.7c6.2-13.8,11.5-36.4,26.2-44.2
				c22-0.7,43.9-3,65.8-5c-5.8,17.9-2.8,40.7-3.1,59.2c-0.3,21.9,4.6,40.2,9.2,61.4C-17400.3-21007.8-17416.7-21007.8-17433-21007.8
				z"/>
			<path class="st1" d="M-17229-21125.8c-0.1,3.6-0.1,9.9,0,15.1c0.1,5.4-0.1,11.4,0.2,14.9c-26.1,2.4-52.4,4.9-78.4,0.4
				c-0.1,6.1-0.1,9.1-0.2,15.2c25.8,2.3,51.2,1.4,76.9-0.8c-0.2,5.8-0.4,18.9-0.5,25.1c-25.6-0.2-51.2-0.2-76.8-0.6
				c-0.1,6.3,0,9.9,0,16.6c26.2,0,52.4-0.1,78.6-0.3c-0.2,4-0.2,10.9-0.2,16.8c0,5.1,0,11.5,0.2,15.7c-43.2,0-86.4,0-129.6,0
				c-0.7-20.7-3.2-40.7-2.9-61.5c0.3-20.3,0.1-40.5,0-60.8c23.3,0.1,45,5.7,68.1,7.3
				C-17272.1-21121.2-17250.4-21123.8-17229-21125.8z"/>
		</g>
		<g class="st0">
			<path class="st1" d="M-17848-20979.8c-4.7,12.8-8.6,26-12.6,39c-1.8-0.1-4.4-0.1-7.3-0.1c-3.7,0-6.9,0.1-8.2,0.1
				c-0.9-3.7-3.1-11.8-4.8-19c-0.7-2.9-1.4-6.1-2-8.8c-0.1,0-0.1,0-0.2,0c-0.6,2.8-1.3,6-2.2,8.9c-1.9,6.7-4.1,14.6-5.3,18.8
				c-1.3-0.1-3.8-0.1-5.8-0.1c-4.1,0-6.6,0.1-8,0.1c-4.1-13-7.8-26.2-12.7-39c5.5,0,8.3,0,13.8,0c0.5,3,3.2,14.7,5.1,22.4
				c0.7,2.7,1.2,5,1.7,6.9c0.1,0,0.2,0,0.3,0c0.5-1.9,1.1-4.3,1.8-7.1c1.8-7.5,4.5-18,5.1-22.3c1.9,0.1,5.9,0.1,8.3,0.1
				c2.1,0,4.9,0,6.6-0.1c0.7,4,3,14.6,5.3,22.5c0.9,3,1.4,5.3,1.8,7.1c0.1,0,0.2,0,0.4,0c0.4-1.8,0.8-4.1,1.6-7.1
				c1.8-7.7,4.1-18.3,4.9-22.5C-17855.5-20979.8-17853-20979.8-17848-20979.8z"/>
			<path class="st1" d="M-17793.3-20939.6c-12.9,0.5-25.7-7.3-25.7-21.1c0-13.7,13.1-20.8,25.7-20.3c12.5,0.4,25.8,5.9,25.8,20.3
				C-17767.4-20946.1-17780.4-20940.1-17793.3-20939.6z M-17779.6-20960.5c0-6.9-4-10.6-13.6-10.6s-13.7,3.5-13.7,10.6
				c0,7,4,10.9,13.7,10.9C-17783.5-20949.6-17779.6-20953.6-17779.6-20960.5z"/>
			<path class="st1" d="M-17698.1-20956.3c6.8,0.7,9.6,2.2,11.3,7.6c1,3.3,1.9,6.3,2.5,7.9c-4.5,0-6.7,0-11.1,0
				c-1.9,0-2.2-0.5-3.4-5.3c-1.5-5.6-2.7-6.6-8.8-6.6c-4,0-6,0-12.3,0.1c0.1,4.7,0.3,8.9,0.6,11.8c-4.9,0-7.4,0-12.4,0
				c0.1-5.7,0.2-11.1,0.2-19.5c0-8.3-0.1-13.9-0.2-19.5c11,0,16.6,0,27.6,0c11.4,0,17.4,3.9,17.4,11.9c0,6.8-3.3,10.4-11.4,11.5
				C-17698.1-20956.4-17698.1-20956.4-17698.1-20956.3z M-17706.6-20961.1c6,0,8.5-1.6,8.5-4.9c0-3.9-2.7-4.8-8.9-4.8
				c-2.5,0-9.2,0-12.9,0.2c0,3.2-0.5,9,0.1,9.5C-17719.4-20960.7-17712.2-20961.1-17706.6-20961.1z"/>
			<path class="st1" d="M-17637-20979.8c-0.2,3-0.3,10.7-0.3,19.4c0,3.2,0,6.6,0,9.4c5.9,0,14.6,0.1,21.6-0.2
				c-0.1,1.7-0.1,3.4-0.1,5.1c0,1.8,0.1,3.5,0.1,5.2c-11.2,0-22.4,0-33.5,0c0-3.6,0.2-11.2,0.2-19.5c0-9,0-15.8-0.2-19.5
				C-17644.3-20979.8-17641.9-20979.8-17637-20979.8z"/>
			<path class="st1" d="M-17558.4-20979.8c12.7-0.2,22.5,5.4,22.5,18.9c0,13.7-9.3,20.4-22.7,20.1c-9.4,0-14.1,0-23.5,0
				c0.2-5.4,0.2-11.2,0.2-19.4s0-14.5-0.2-19.6C-17572.6-20979.8-17567.9-20979.8-17558.4-20979.8z M-17547.8-20960.8
				c0-7.7-3.3-9.7-10.9-9.7c-4,0-7.7,0.1-11.3,0.2c-0.1,3.3-0.1,6.9-0.1,10.3c0,4.1,0,7,0.1,9.4c4,0.3,7,0.2,11.2,0.2
				C-17551.4-20950.4-17547.8-20952.6-17547.8-20960.8z"/>
			<path class="st1" d="M-17435.9-20979.8c-4.7,12.8-8.6,26-12.6,39c-1.8-0.1-4.4-0.1-7.3-0.1c-3.7,0-6.9,0.1-8.2,0.1
				c-0.9-3.7-3.1-11.8-4.8-19c-0.7-2.9-1.4-6.1-2-8.8c-0.1,0-0.1,0-0.2,0c-0.6,2.8-1.3,6-2.2,8.9c-1.9,6.7-4.1,14.6-5.3,18.8
				c-1.3-0.1-3.8-0.1-5.8-0.1c-4.1,0-6.6,0.1-8,0.1c-4.1-13-7.8-26.2-12.7-39c5.5,0,8.3,0,13.8,0c0.5,3,3.2,14.7,5.1,22.4
				c0.7,2.7,1.2,5,1.7,6.9c0.1,0,0.2,0,0.3,0c0.5-1.9,1.1-4.3,1.8-7.1c1.8-7.5,4.5-18,5.1-22.3c1.9,0.1,5.9,0.1,8.3,0.1
				c2.1,0,4.9,0,6.6-0.1c0.7,4,3,14.6,5.3,22.5c0.9,3,1.4,5.3,1.8,7.1c0.1,0,0.2,0,0.4,0c0.4-1.8,0.8-4.1,1.6-7.1
				c1.8-7.7,4.1-18.3,4.9-22.5C-17443.5-20979.8-17440.9-20979.8-17435.9-20979.8z"/>
			<path class="st1" d="M-17402.9-20940.8c0.2-6,0.2-11.2,0.2-19.5c0-8.3,0-13.6-0.2-19.5c4.8,0,7.3,0,12.1,0
				c-0.2,5.9-0.2,11.1-0.2,19.4c0,8.2,0,13.5,0.2,19.6C-17395.6-20940.8-17398.1-20940.8-17402.9-20940.8z"/>
			<path class="st1" d="M-17329.2-20979.8c12.7-0.2,22.5,5.4,22.5,18.9c0,13.7-9.3,20.4-22.7,20.1c-9.4,0-14.1,0-23.5,0
				c0.2-5.4,0.2-11.2,0.2-19.4s0-14.5-0.2-19.6C-17343.4-20979.8-17338.6-20979.8-17329.2-20979.8z M-17318.6-20960.8
				c0-7.7-3.3-9.7-10.9-9.7c-4,0-7.7,0.1-11.3,0.2c-0.1,3.3-0.1,6.9-0.1,10.3c0,4.1,0,7,0.1,9.4c4,0.3,7,0.2,11.2,0.2
				C-17322.1-20950.4-17318.6-20952.6-17318.6-20960.8z"/>
			<path class="st1" d="M-17229.9-20979.8c-0.1,1-0.1,2.8-0.1,4.3c0,1.5-0.1,3.5,0.1,4.6c-9.6-0.1-19.2-0.1-28.9-0.1
				c0,2.6,0,3.9,0,6.5c9.4,0,18.9,0,28.3-0.2c-0.1,1.9-0.1,6.2-0.1,8.2c-9.4-0.1-18.9-0.2-28.3-0.2c0,2.7,0,4,0,6.7
				c9.6,0,19.2,0,28.9-0.1c-0.1,1.1-0.1,3.2-0.1,4.8c0,1.5,0,3.4,0.1,4.5c-13.7,0-27.3,0-41,0c0.2-5.2,0.2-11.2,0.2-19.5
				c0-8.3,0-14.5-0.2-19.5C-17257.2-20979.8-17243.5-20979.8-17229.9-20979.8z"/>
		</g>
	</g>
</g>
<g id="Group_548_2_" transform="translate(18174 20827)">
	<g class="st0">
		<path class="st1" d="M-16792.7-20729.5c-9.4,28.5-29,101.9-33.6,120c-7.4-0.2-17.8-0.3-29.6-0.3c-15.7,0-27.7,0.2-32.2,0.3
			c-2.1-9.8-6.9-31-11-51.4c-1.6-8.8-3.2-18.7-4.5-27.7h-1.3c-1.4,9.1-3.2,19.5-5.1,28.2c-4.5,18.9-9.6,40-12.2,50.9
			c-5.4,0-16.6-0.3-26.6-0.3c-16,0-25.4,0.2-30.4,0.3c-5.8-21-23.7-91.4-33.9-120h54.2c1,8.5,6.9,41.9,11.5,64
			c1.4,7.2,2.7,14.2,4,20h1c1.3-5.9,2.9-13,4.5-20.3c4.5-22.1,10.9-52,12.2-63.7c6.4,0.2,21.8,0.3,30.1,0.3c7.7,0,20.3-0.2,26.2-0.3
			c1.4,10.7,6.4,41.6,11.7,64.3c2.1,7.8,3.4,14.7,4.5,20.3h1c1-5.8,2.1-12.5,3.8-20.3c4.5-22.7,10.1-52.6,11.7-64.3H-16792.7z"/>
		<path class="st1" d="M-16668-20658.5c21.4,2.4,30.6,7.5,34.7,25c2.4,9,4.6,18.9,6.4,24h-43.5c-7.8,0-9.8-2.1-12.5-15.5
			c-3.5-17.9-6.6-21.3-21.6-21.3h-26.6c0.3,15,1,27.8,1.9,36.8h-51.2c0.3-17.4,0.8-34.2,0.8-60c0-25.4-0.3-42.7-0.8-60h92.2
			c36.2,0,55.4,10.4,55.4,35.5c0,21.4-10.1,31.4-35.2,34.6V-20658.5z M-16681.2-20687c0-11.2-6.2-14.1-21.3-14.1
			c-5.6,0-19.7,0.2-29.1,0.5c0,9.3,0,18.7,0.2,27.7c6.7,0.3,17.9,0.3,30.2,0.3C-16686.9-20672.6-16681.2-20677-16681.2-20687z"/>
		<path class="st1" d="M-16610-20609.5c0.5-17.9,0.5-34.6,0.5-60s0-42.2-0.5-60h51.2c-0.5,17.6-0.5,34.2-0.5,59.8
			c0,25.3,0.2,42.1,0.5,60.2H-16610z"/>
		<path class="st1" d="M-16493.6-20647.1c0,8.3,5.8,11.7,25.8,11.7c20.6,0,24.6-3,24.6-8.5c0-6.2-3.4-10.2-33.6-12.3
			c-49.9-3.8-61.4-15.5-61.4-37.9c0-25.4,20.3-38.2,70.6-38.2c55.5,0,71.4,10.7,71.4,34.6c0,2.4,0,4.8-0.2,7.4
			c-6.2-0.5-17-0.8-26.1-0.8c-6.9,0-13.4,0.2-17.4,0.3c0.2-1,0.2-2.1,0.2-2.9c0-6.9-4.2-10.2-26.1-10.2c-18.9,0-23,2.9-23,7.7
			c0,5.6,2.9,9.3,35.7,12.2c45.3,4,59.4,13.8,59.4,38.9c0,25.8-17.9,38.7-71.5,38.7c-56,0-73.1-10.7-73.1-34.6
			c0-2.7,0.2-5.6,0.5-8.6c7.4,0.6,17.9,1.3,28,1.3c6.2,0,12-0.2,16.5-0.5V-20647.1z"/>
		<path class="st1" d="M-16254.9-20729.5c-0.3,4.8-0.3,12.3-0.3,19c0,6.6,0,14.6,0.3,19.8c-13.4-0.3-26.7-0.3-39-0.5
			c0,37.9,0.2,73.1,0.6,81.8c-7-0.5-18.6-0.5-26.7-0.5s-19.4,0-26.9,0.5c0.5-8.5,0.8-43.7,1-81.8c-12.3,0.2-25.6,0.2-39.2,0.5
			c0.2-5.3,0.2-13.3,0.2-19.8c0-6.7,0-14.1-0.2-19H-16254.9z"/>
	</g>
	<g class="st0">
		<path class="st1" d="M-16897.1-20456.6c-54.7,0-82.6-20-82.6-64.2c0-44.5,28-61.6,82.2-61.6c55,0,76.5,15,76.5,41.1
			c0,1.9,0,3.8-0.2,5.8c-7-0.3-16.5-0.5-25.6-0.5c-9.3,0-17.9,0.2-24.2,0.5c0-1.1,0.2-2.2,0.2-3.2c0-9.8-8.2-13.8-26.9-13.8
			c-21.8,0-30.7,8.3-30.7,32.5c0,22.6,8.5,32.8,32.5,32.8c17.4,0,25.1-4.8,27.2-16.3c-12,0-25.3,0.2-35.5,0.5
			c0.2-2.4,0.2-8.8,0.2-11.4c0-4.6,0-8.6-0.2-11.8c16,0.3,32.3,0.3,44.3,0.3c10.7,0,24.3,0.2,38.6-0.3
			C-16818.2-20479.2-16828.8-20456.6-16897.1-20456.6z"/>
		<path class="st1" d="M-16698.8-20459.5c-0.6-4.3-2.4-12.3-5.1-22.1c-9.3,0-18.4,0-25.4,0c-6.7,0-16,0-25.4,0
			c-2.7,9.4-4.8,17.3-5.6,22.1h-53.6c13.6-30.6,39.5-102.2,45.1-120h82.1c5.9,17.9,32.2,89.1,46.4,120H-16698.8z M-16711.6-20508
			c-3.4-10.9-6.9-21.9-10.4-31.7c-3.2-7.8-5.4-15-7.2-20.6c-1.8,5.6-4.2,12.6-7.2,21c-3.2,9.6-6.9,20.5-10.2,31.2
			c6.4,0.2,12.5,0.2,17.3,0.2H-16711.6z"/>
		<path class="st1" d="M-16492.6-20459.5c0.6-17,1.1-31,1.3-49.8c0-7.7,0.5-16.5,1-25l-0.8-0.2c-3,8.8-6.2,17.4-9.4,24l-25.3,50.9
			h-24.2l-27-53.8c-3.2-6.6-6.6-15.2-9.4-23.5l-0.8,0.2c0.5,8.3,1,16.6,1.1,25.3c0.2,19.7,0.5,34.7,1.1,51.8h-42.6
			c0.8-17.3,1-34.7,1-60.2c0-26.2-0.2-44.2-0.6-59.8h65.1c4.8,11.5,12.3,29,21.4,48.6c2.4,5.6,5.1,12.6,7.8,19.7
			c2.6-7,5.3-14.1,7.5-19.7c8.6-19,16.8-37.3,21.6-48.6h58.9c-0.3,15.7-0.6,33.6-0.6,59.8c0,25.4,0.2,42.9,1,60.2H-16492.6z"/>
		<path class="st1" d="M-16290.8-20579.5c-0.2,3.5-0.3,9.6-0.3,14.6c0,5.1,0,11.7,0.3,15.4c-24.6-0.2-57.3-0.3-78.6-0.3v16.2
			c24.6,0,57.1,0,77-0.5c-0.2,6.1-0.2,19.8-0.2,26.4c-19.4-0.3-52.3-0.6-76.8-0.6v16.8c21.4,0,56-0.2,78.6-0.3
			c-0.2,4-0.2,10.9-0.2,16.8c0,5.1,0,11.5,0.2,15.7h-129.3c0.6-16.3,0.6-34.4,0.6-60c0-25.4,0-44-0.6-60H-16290.8z"/>
	</g>
	<g class="st0">
		<path class="st1" d="M-16909.6-20431.5c-3.4,9-10.6,32.4-12.6,39c-1.8-0.1-4.4-0.1-7.3-0.1c-3.7,0-6.9,0.1-8.2,0.1
			c-0.9-3.7-3.1-11.8-4.8-19c-0.7-2.9-1.4-6.1-2-8.8h-0.2c-0.6,2.8-1.3,6-2.2,8.9c-1.9,6.7-4.1,14.6-5.3,18.8
			c-1.3-0.1-3.8-0.1-5.8-0.1c-4.1,0-6.6,0.1-8,0.1c-2.4-7.6-8.9-30-12.7-39h13.8c0.5,3,3.2,14.7,5.1,22.4c0.7,2.7,1.2,5,1.7,6.9h0.3
			c0.5-1.9,1.1-4.3,1.8-7.1c1.8-7.5,4.5-18,5.1-22.3c1.9,0.1,5.9,0.1,8.3,0.1c2.1,0,4.9,0,6.6-0.1c0.7,4,3,14.6,5.3,22.5
			c0.9,3,1.4,5.3,1.8,7.1h0.4c0.4-1.8,0.8-4.1,1.6-7.1c1.8-7.7,4.1-18.3,4.9-22.5H-16909.6z"/>
		<path class="st1" d="M-16854.9-20391.3c-17.2,0-25.7-8-25.7-21.1c0-13.3,9.3-20.3,25.7-20.3c16.5,0,25.8,7,25.8,20.3
			C-16829-20399.3-16837.6-20391.3-16854.9-20391.3z M-16841.2-20412.2c0-6.9-4-10.6-13.6-10.6c-9.6,0-13.7,3.5-13.7,10.6
			c0,7,4,10.9,13.7,10.9C-16845.1-20401.3-16841.2-20405.3-16841.2-20412.2z"/>
		<path class="st1" d="M-16759.7-20408c6.8,0.7,9.6,2.2,11.3,7.6c1,3.3,1.9,6.3,2.5,7.9h-11.1c-1.9,0-2.2-0.5-3.4-5.3
			c-1.5-5.6-2.7-6.6-8.8-6.6c-4,0-6,0-12.3,0.1c0.1,4.7,0.3,8.9,0.6,11.8h-12.4c0.1-5.7,0.2-11.1,0.2-19.5c0-8.3-0.1-13.9-0.2-19.5
			h27.6c11.4,0,17.4,3.9,17.4,11.9c0,6.8-3.3,10.4-11.4,11.5V-20408z M-16768.2-20412.8c6,0,8.5-1.6,8.5-4.9c0-3.9-2.6-4.9-8.9-4.8
			c-2.5-0.1-9.2,0-12.9,0.2c0,3.2,0,6.4,0.1,9.5C-16779-20412.9-16773.7-20412.8-16768.2-20412.8z"/>
		<path class="st1" d="M-16698.6-20431.5c-0.2,3-0.3,10.7-0.3,19.4c0,3.2,0,6.6,0,9.4c5.9,0,14.6,0.1,21.6-0.2
			c-0.1,1.7-0.1,3.4-0.1,5.1c0,1.8,0.1,3.5,0.1,5.2h-33.5c0-3.6,0.2-11.2,0.2-19.5c0-9,0-15.8-0.2-19.5H-16698.6z"/>
		<path class="st1" d="M-16620-20431.5c16.7,0,22.5,5.7,22.5,18.9c0,13.6-5.5,20.1-22.7,20.1h-23.5c0.2-5.4,0.2-11.2,0.2-19.4
			s0-14.5-0.2-19.6H-16620z M-16609.4-20412.4c0-7.7-3.3-9.7-10.9-9.7c-4,0-7.7,0.1-11.3,0.2c-0.1,3.3-0.1,6.9-0.1,10.3
			c0,4.1,0,7,0.1,9.4c4,0.3,7,0.2,11.2,0.2C-16613-20402-16609.4-20404.3-16609.4-20412.4z"/>
		<path class="st1" d="M-16497.5-20431.5c-3.4,9-10.6,32.4-12.6,39c-1.8-0.1-4.4-0.1-7.3-0.1c-3.7,0-6.9,0.1-8.2,0.1
			c-0.9-3.7-3.1-11.8-4.8-19c-0.7-2.9-1.4-6.1-2-8.8h-0.2c-0.6,2.8-1.3,6-2.2,8.9c-1.9,6.7-4.1,14.6-5.3,18.8
			c-1.3-0.1-3.8-0.1-5.8-0.1c-4.1,0-6.6,0.1-8,0.1c-2.4-7.6-8.9-30-12.7-39h13.8c0.5,3,3.2,14.7,5.1,22.4c0.7,2.7,1.2,5,1.7,6.9h0.3
			c0.5-1.9,1.1-4.3,1.8-7.1c1.8-7.5,4.5-18,5.1-22.3c1.9,0.1,5.9,0.1,8.3,0.1c2.1,0,4.9,0,6.6-0.1c0.7,4,3,14.6,5.3,22.5
			c0.9,3,1.4,5.3,1.8,7.1h0.4c0.4-1.8,0.8-4.1,1.6-7.1c1.8-7.7,4.1-18.3,4.9-22.5H-16497.5z"/>
		<path class="st1" d="M-16464.5-20392.5c0.2-6,0.2-11.2,0.2-19.5c0-8.3,0-13.6-0.2-19.5h12.1c-0.2,5.9-0.2,11.1-0.2,19.4
			c0,8.2,0,13.5,0.2,19.6H-16464.5z"/>
		<path class="st1" d="M-16390.8-20431.5c16.7,0,22.5,5.7,22.5,18.9c0,13.6-5.5,20.1-22.7,20.1h-23.5c0.2-5.4,0.2-11.2,0.2-19.4
			s0-14.5-0.2-19.6H-16390.8z M-16380.2-20412.4c0-7.7-3.3-9.7-10.9-9.7c-4,0-7.7,0.1-11.3,0.2c-0.1,3.3-0.1,6.9-0.1,10.3
			c0,4.1,0,7,0.1,9.4c4,0.3,7,0.2,11.2,0.2C-16383.7-20402-16380.2-20404.3-16380.2-20412.4z"/>
		<path class="st1" d="M-16291.4-20431.5c-0.1,1-0.1,2.8-0.1,4.3c0,1.5-0.1,3.5,0.1,4.6c-8.7-0.1-21.4-0.1-28.9-0.1v6.5
			c8.7,0,21.4,0,28.3-0.2c-0.1,1.9-0.1,6.2-0.1,8.2c-6.8-0.1-19.6-0.2-28.3-0.2v6.7c7.4,0,20.6-0.1,28.9-0.1
			c-0.1,1.1-0.1,3.2-0.1,4.8c0,1.5,0,3.4,0.1,4.5h-41c0.2-5.2,0.2-11.2,0.2-19.5c0-8.3,0-14.5-0.2-19.5H-16291.4z"/>
	</g>
</g>
<g>
	<g id="Group_548_8_" transform="translate(18174 20827)">
		<g class="st0">
			<path class="st1" d="M-15657.1-20793.9c-29.5,46.1-56.3,94.8-76.6,145.7c-12.1,0.1-24.3,0.3-36.4,0.6
				c-13.2,0.4-26.4,0.8-39.6,1.6c-1-19.4,0.4-38.3,3.6-57.4c2.1-10.3,5.4-20.9,9.3-30.7c-0.6,0.1-0.9,0.1-1.4,0.2
				c-7.1,10.6-13.9,21.3-20.7,32.1c-11.9,18.6-23.3,37.4-32.6,57.4c-10.9,0.3-21.8,0.6-32.6,1c-12.5,0.5-25,1.1-37.5,2
				c-2.2-43.7,15.6-84.3,42.4-118c18.2-3.9,36.4-7.6,54.7-11.1c-15.3,19.9-28.1,42.7-35.1,66.9c-2.4,7.6-4.3,15.1-5.3,21.2
				c0.5,0,0.7-0.1,1.1-0.1c4.1-6.5,9.4-14.3,15.3-22.5c17.6-25.1,37.5-48.2,57.4-71.5c10-1.5,20.1-3,30.1-4.5
				c7.7-1.2,20.6-3.2,26.7-4.2c-11,23-18.8,47.9-21.7,73.2c-0.7,9-1.5,16.9-1.9,23.3c0.5,0,0.7,0,1.1-0.1c2.9-6.8,6.5-14.7,11.6-24
				c13.5-26.2,28.6-51.5,43.9-76.7C-15686.7-20790.9-15671.9-20792.5-15657.1-20793.9z"/>
			<path class="st1" d="M-15536.9-20712.2c20.4,1.9,35.8,10.1,40.6,31c2.3,9.9,4.8,20.2,7.9,30c-17.9,0-35.7,0-53.6,0.1
				c-9.6,0-12.5-2.8-14.6-19.2c-2.1-15.9-6.6-27.2-24.4-26.1c-10.5,0.2-21,0.4-31.6,0.7c-1.2,15.1-2.3,30.2-1.7,45.4
				c-21,0.3-42,0.6-63,1c2.9-24.5,7.3-48.9,12.6-72.8c5.4-24.4,12.1-48.8,19.9-72.7c31-2.5,61.9-4.3,92.9-5.4
				c29.1-1.6,55.5,11.8,55.9,43.5c0.4,25.9-16.4,39.8-41,43.4C-15536.9-20713-15536.9-20712.7-15536.9-20712.2z M-15549.7-20747.6
				c1.4-13.8-9.7-17.5-21.5-16.9c-10.4,0.5-21.1,0.9-31.7,1.8c-2.1,11.4-6.9,32.6-5.6,34.1c1.8,2.2,23.1-0.4,34.6-0.6
				C-15561.8-20729.4-15551-20734.6-15549.7-20747.6z"/>
			<path class="st1" d="M-15467.5-20651.2c0.3-25-0.5-50-1.4-74.9c-0.9-25-2-50-4-74.9c17.2,0.3,34.4,0.8,51.6,1.5
				c3.8,24.7,7.3,49.5,10.1,74.2c2.8,24.7,4.9,49.7,6.6,74.6C-15425.5-20651-15446.5-20651.1-15467.5-20651.2z"/>
			<path class="st1" d="M-15330.4-20695.3c2.4,14.6,22.3,14.8,33.2,15.2c7.3,0.3,29,1.7,27.5-8.9c-1.9-13.9-31.5-15.1-43-16.5
				c-33-4.1-72.5-10.7-79.2-49.3c-6.8-38.9,30.8-44.8,61-41.7c35.3,3.6,76.2,13.4,93,48.4c1.3,2.8,2.6,5.5,3.8,8.5
				c-9.7-1.6-19.5-2.7-29.3-3.6c-7.6-0.6-14.8-1.1-19.2-1.2c-0.2-1.1-0.7-2.5-1.1-3.4c-4.6-12.3-21.7-13.8-32.8-14.5
				c-20-1.2-23.8,1.8-22.1,7.5c4.1,14.5,32.7,15.4,43.9,17.2c32.3,5.2,72,14.8,83.1,50c13.7,43.6-53,42.7-77.9,42.2
				c-32.4-0.6-89.2-0.6-93.7-44.2c-0.3-3.3-0.6-6.9-0.6-10.7c11.1,1.3,22.3,2.1,33.4,2.5c7.3,0.3,14.2,0.3,19.4,0.1
				C-15330.7-20696.7-15330.6-20696.2-15330.4-20695.3z"/>
			<path class="st1" d="M-15114.9-20759.3c4.9,4.7,12.8,12.3,19.3,19c6.3,6.6,13.5,14.6,18.3,19.9c-14.5-2.4-29-4.6-43.6-6.8
				c18.5,26.8,33.3,54.7,43,85.8c-11-1-22-1.5-33-2c-10.9-0.5-22-1-33-0.8c-5.2-32.1-19.1-62.1-34.6-90.4c-14.4-1.5-28.7-3-43.1-4.2
				c-2.7-6-7.4-15.2-11.6-22.6c-4.3-7.7-9.3-16.1-13-21.8C-15202.1-20776.7-15158.4-20768.7-15114.9-20759.3z"/>
		</g>
		<g class="st0">
			<path class="st1" d="M-15800.9-20472.8c-46.8-3.5-111.2-24.4-123.2-76.1c-12.8-54.9,59.5-65.9,98.7-66c34-0.1,93,1.4,95.3,47.7
				c0.1,2.3,0.3,4.6,0.2,6.8c-10.6-0.6-21.3-0.8-31.9-1c-10-0.2-20-0.2-30,0.1c-0.1-1.3,0-2.6-0.1-3.7c-1.1-15.3-23.7-16-34.5-16.1
				c-22.7-0.1-39,11-34.2,35.4c4.8,24.4,25,37.2,48.7,38.4c12.3,0.6,29-0.9,28.3-17.1c-14.4-0.6-28.8-1-43.2-1.3
				c-0.5-2.7-2-9.9-2.6-12.8c-1-5.2-1.8-9.7-2.5-13.3c18.3,0.8,36.7,1.3,55,1.7c15.9,0.4,31.8,0.7,47.7,0.6
				c3,18.2,9.4,45.2-2.8,61.7C-15746.7-20467.7-15779.8-20471.2-15800.9-20472.8z"/>
			<path class="st1" d="M-15572.3-20464.5c-2.2-9.3-5.4-18.4-8.4-27.5c-10.1-0.2-20.3-0.4-30.4-0.6s-20.3-0.5-30.4-0.8
				c-1.7,11.5-2.4,21-2.3,26.8c-20.7-0.8-41.5-1.8-62.2-2.9c8.4-49.6,23.5-96.5,40.5-143.7c34.1-0.2,68.3-0.4,102.4-0.5
				c16.4,50.9,37.1,100.9,58.4,149.9C-15527.2-20463.8-15549.7-20464.1-15572.3-20464.5z M-15592.2-20524.9
				c-4.7-13.2-9.3-26.7-14.6-39.3c-4-9.6-7.2-18.6-9.4-25.5c-2.2,6.9-5.3,15.7-8.6,25.8c-3.9,12.4-7.3,25.4-10.5,38.2
				c7.9,0.3,15.3,0.4,21.2,0.5C-15605.3-20525.1-15600.9-20525-15592.2-20524.9z"/>
			<path class="st1" d="M-15333.1-20467.3c4.6-20.1,8.5-40.2,10.9-60.5c1.2-10,2.5-20.2,3.6-30.3c-0.4-0.1-0.6-0.1-1-0.2
				c-4.2,10-8.5,20-13.9,29.4c-12.6,21.2-25.4,42.1-38.3,63.1c-9.3,0.3-18.7,0.6-28,0.8c-8.3-22.5-17.5-44.4-27.4-66.2
				c-4.2-9.5-7.7-19.4-10.9-29.2c-0.4,0.1-0.6,0.1-1,0.2c0.5,10.5,0.8,21.1,0.6,31.5c-0.5,21.4-1.2,43.1-2,64.6
				c-16.5,0.3-32.9,0.4-49.4,0.4c1.3-25,1.5-50.2,1.7-75.2c0.1-24.9,0.1-49.9-0.7-74.8c27.1,0,54.2,0.1,81.2,0.2
				c8.7,20.1,17.6,40.1,26.2,60.2c2.7,6.9,5.6,15.5,8.3,24.2c3.8-8.7,7.6-17.4,10.7-24.3c9.8-19.6,19.4-39.3,27.5-59.6
				c24.5,0.2,49,0.4,73.4,0.6c0.6,23.8-0.5,47.8-3.2,71.1c-2.7,23.8-7.4,47.8-13,71.4
				C-15296-20469.1-15314.5-20468.1-15333.1-20467.3z"/>
			<path class="st1" d="M-15069.1-20610.1c0.2,3.7,0.4,10,0.5,15.2c0.1,5.4-0.1,12.2,0,16.1c-32.7,0.2-65.4,0.4-98.1,0.7
				c-0.4,7.3-0.6,10.9-1.5,18.2c31.9-0.7,63.9-1.3,95.8-2.8c-1.7,9.3-3.8,18.6-6.5,27.7c-31.3,1.2-62.6,2.4-93.9,3.7
				c-1.6,7.6-2.6,11.4-4.7,19c31.7-1.7,63.4-3.8,95-6.2c-1.8,4.2-4.9,11.4-7.9,17.6c-2.6,5.4-6.2,12-8.6,16.4
				c-49.9,5.2-99.9,9.4-150,12.8c8.2-22.8,13.6-46.6,16.7-70.2c3.1-22.9,4.2-46.7,1.9-70.2
				C-15176.6-20611.8-15122.8-20611-15069.1-20610.1z"/>
		</g>
		<g class="st0">
			<path class="st1" d="M-15801.4-20446c2.9,14.4,8.5,28.3,15,41.5c-1.9-0.4-4.5-0.9-7.4-1.4c-3.7-0.6-6.9-1.2-8.2-1.3
				c-7.1-7.1-14-14.2-21-21.5c-3.1-3.3-6.3-6.8-8.9-9.8c-0.1,0-0.1,0-0.2,0c1.5,2.9,3.3,6.3,4.7,9.3c3.4,6.9,8.2,15,10.9,19.3
				c-1.4-0.3-4-0.8-5.9-1.2c-4.1-0.8-6.6-1.2-7.9-1.4c-16.1-14.1-31.6-28.8-47.4-43.2c6.1,0.9,9.1,1.3,15.2,2.1
				c7.5,8.5,15.4,16.7,23.4,24.6c3,3,5.6,5.6,7.8,7.7c0.1,0,0.2,0,0.3,0.1c-1.2-2-2.6-4.3-4.2-7.2c-4.4-7.7-9.4-18.6-11.8-23.1
				c2.2,0.3,6.6,0.9,9.2,1.2c2.4,0.3,5.5,0.7,7.3,0.9c7,8.8,14.4,17.2,22.1,25.4c3.3,3.4,5.7,6,7.5,8.1c0.2,0,0.2,0,0.4,0.1
				c-1.1-1.9-2.5-4.3-4-7.5c-4.1-8.3-8.8-19.5-10.7-24.1C-15809.7-20446.9-15806.9-20446.6-15801.4-20446z"/>
			<path class="st1" d="M-15718-20393c-16.4-2.4-31.7-13.4-40-27.7c-7.9-13.6,2.3-22.4,16.4-20.6c15.3,2,31.2,12.3,38.1,26.5
				C-15697.2-20401.9-15703.4-20390.8-15718-20393z M-15716.2-20415.7c-3.7-8.1-9.8-12.8-20.2-13.8s-12.9,2.6-8.7,10.7
				c4.2,8,10.9,13.1,20.9,14.3C-15714.2-20403.4-15712.5-20407.7-15716.2-20415.7z"/>
			<path class="st1" d="M-15628.6-20403.6c7.3,1.3,10.8,3.3,14.2,10c2.1,4.1,4,7.8,5.1,9.9c-4.5-0.3-6.7-0.4-11.2-0.8
				c-1.9-0.1-2.4-0.8-5.4-6.7c-3.5-6.9-5.1-8.2-11.5-8.6c-4.2-0.3-6.3-0.4-12.7-0.9c2,5.7,3.9,10.8,5.5,14.4
				c-5-0.4-7.5-0.7-12.4-1.1c-2.6-6.8-4.9-13.4-8.4-23.5c-3.4-10-5.5-16.7-7.6-23.5c10.2,0.7,20.3,1.3,30.5,1.8
				c10,0.1,20.1,5.1,22.4,15.5c1.8,8.3-0.5,12.6-8.6,13.4C-15628.6-20403.7-15628.6-20403.7-15628.6-20403.6z M-15639.3-20410
				c6.3,0.4,8.4-1.4,7.4-5.5c-1.2-4.8-4.4-6-11.2-6.5c-2.7-0.2-9.9-0.6-14-0.7c1.1,3.9,2.2,10.5,3.5,11.5
				C-15652.5-20410.3-15645.1-20410.4-15639.3-20410z"/>
			<path class="st1" d="M-15568.4-20429.7c0.3,3.7,1.3,13.2,2.8,24.2c0.5,4,1.1,8.1,1.6,11.6c6.1,0.2,15,0.5,22.3,0.5
				c0.1,2.1,0.3,4.3,0.5,6.4c0.2,2.2,0.5,4.3,0.8,6.5c-11.2-0.3-22.4-0.7-33.7-1.2c-0.8-4.4-2.3-13.9-3.9-24.2
				c-1.8-11.2-3-19.5-3.8-24.2C-15576.5-20429.9-15573.8-20429.8-15568.4-20429.7z"/>
			<path class="st1" d="M-15481.7-20428.8c15.2-1.2,24.4,8.3,23.2,23.3c-1.2,14.7-9.1,25.6-24.8,25.4c-9.4,0.1-14.2,0.1-23.6,0
				c0-6.8-0.1-14-0.4-24.3s-0.3-18.1-0.6-24.4C-15497.4-20428.7-15492.1-20428.7-15481.7-20428.8z M-15471.1-20405
				c0.5-9.6-3-12-11.2-12c-4.3,0-8.3,0.1-12.2,0.3c-0.1,4.1-0.2,8.6-0.2,12.9c0,5.1,0,8.8,0,11.8c4.1,0.3,7.2,0.2,11.6,0.1
				C-15475.4-20392-15471.6-20394.9-15471.1-20405z"/>
			<path class="st1" d="M-15346.4-20433c-9.1,16-17.7,32.3-26.4,48.5c-1.8,0.1-4.4,0.2-7.3,0.4c-3.7,0.3-7,0.5-8.3,0.7
				c0.3-4.5,0.5-14.3,0.5-23.1c0-3.5,0.1-7.4,0.2-10.7c-0.1,0-0.1,0-0.2,0c-1.3,3.4-2.9,7.5-4.6,11.1c-3.8,8.4-8.1,18.2-10.4,23.5
				c-1.3,0-3.8,0.1-5.8,0.2c-4.1,0.2-6.6,0.4-8,0.5c-1.1-16-2.2-32.3-6-47.9c6.1-0.2,9.1-0.3,15.2-0.5c0,3.7,0.6,18.1,0.9,27.5
				c0.1,3.3,0.1,6.2,0.2,8.5c0.1,0,0.2,0,0.3,0c0.9-2.4,2.2-5.3,3.6-8.8c3.6-9.2,7.5-18.3,10.5-27.7c2.1,0,6.5-0.2,9.2-0.3
				c2.4-0.1,5.5-0.2,7.3-0.4c-0.2,4.9-0.5,17.7-0.5,27.4c0,3.6-0.2,6.4-0.3,8.6c0.2,0,0.2,0,0.4,0c1-2.3,2.1-5,3.9-8.8
				c4.1-9.2,8.2-18.5,11.9-27.9C-15354.7-20432.5-15352-20432.7-15346.4-20433z"/>
			<path class="st1" d="M-15327-20388.4c3.1-7.2,5.6-13.5,9.2-23.4c3.6-10,5.7-16.3,7.8-23.4c5.4-0.4,8-0.6,13.4-1
				c-2.6,7-4.8,13.3-8.7,23.2c-3.8,9.8-6.5,16.1-9.6,23.3C-15319.7-20389.2-15322.1-20388.9-15327-20388.4z"/>
			<path class="st1" d="M-15228.6-20442.2c13.6-2,21.9,5.7,12.8,18.7c-8.7,12.3-21,23.9-37.4,26.1c-9.4,1.3-14.2,2-23.6,3.2
				c3.6-6.3,7.2-13.1,11.9-22.7c4.7-9.6,7.9-16.9,10.2-22.8C-15244.2-20440.6-15239-20441.1-15228.6-20442.2z M-15228.5-20421.6
				c5-8.8,2.5-10.6-5.7-9.7c-4.3,0.5-8.4,1-12.3,1.5c-1.9,3.8-4,8-6.1,11.9c-2.4,4.7-4.3,8.1-5.8,10.9c4-0.2,7.1-0.7,11.5-1.3
				C-15239.2-20409.3-15233.8-20412.4-15228.5-20421.6z"/>
			<path class="st1" d="M-15118.9-20455.3c-0.8,1-2.2,2.9-3.4,4.5c-1.2,1.6-2.9,3.7-3.6,4.8c-10.4,1.5-20.8,3-31.2,4.5
				c-2,2.8-2.9,4.2-5,7c10.1-1.5,20.3-3.1,30.4-4.9c-1.7,2-5.4,6.5-7.2,8.6c-9.8,1.6-19.6,3.2-29.5,4.7c-2.2,2.9-3.4,4.3-5.7,7.2
				c10-1.7,19.9-3.5,29.8-5.4c-1.1,1.2-3.2,3.4-4.7,5.1c-1.4,1.5-3.3,3.5-4.3,4.7c-13.7,2.7-27.4,5.3-41.1,7.8
				c4.8-5.7,9.9-12.2,16.4-21.3c6.4-9,10.8-15.8,13.9-21.3C-15149.1-20451.3-15134-20453.3-15118.9-20455.3z"/>
		</g>
	</g>
</g>
<g>
	<g id="Group_548_10_" transform="translate(18174 20827)">
		<g class="st0">
			<path class="st1" d="M-17878.9-20817.7c-26.3,44.8-49.8,91.9-68,140.6c-11.7,0-23.4,0.1-35,0.5c-12.7,0.3-25.4,0.7-38.1,1.4
				c-1.5-18.7-1.7-37.6,0.7-56.2c1.4-10.1,3.6-20.3,6.5-30.1c-0.6,0-0.8,0.1-1.4,0.1c-5.9,10.4-11.8,20.8-17.6,31.3
				c-10.3,18.3-20.3,36.8-28.5,56.1c-10.5,0.2-21,0.4-31.4,0.7c-12,0.4-24.1,0.9-36.1,1.7c-3.9-41.6,7.1-82.1,27.2-118.4
				c18.2-3.1,36.4-6.1,54.6-8.9c-12.2,20.3-21.1,43.1-25.8,66.3c-1.6,7.5-2.9,14.9-3.5,21c0.4,0,0.7,0,1.1-0.1
				c3.6-6.4,8.1-14.1,13.1-22.1c14.8-24.2,31.7-46.9,48.4-69.9c10-1.1,20.1-2.3,30.1-3.5c7.7-0.9,20.6-2.6,26.6-3.4
				c-8.3,22.9-13.8,47.1-15.1,71.5c-0.1,8.7-0.6,16.5-0.7,22.7c0.4,0,0.7,0,1.1,0c2.5-6.6,5.6-14.3,10-23.3
				c11.6-25.2,24.5-49.7,37.5-74.2C-17908.5-20815.3-17893.7-20816.5-17878.9-20817.7z"/>
			<path class="st1" d="M-17757.9-20738.1c19.8,1.8,34.8,9.5,39.5,29.8c2.2,9.4,4.6,19.4,7.6,28.8c-17.2,0-34.4,0-51.5,0.1
				c-9.3,0-12-2.7-14.2-18.5c-2.2-15.4-6.7-26.1-23.8-25.2c-10.2,0.1-20.4,0.3-30.6,0.5c-0.9,14.5-1.7,29.1-1,43.7
				c-20.2,0.2-40.4,0.5-60.6,0.8c2.4-23.6,6-47.1,10.3-70.2c4.3-23.4,9.6-47,15.7-70.2c30.9-2,61.8-3.4,92.8-4.3
				c28.1-1.3,55.4,10.6,55.8,41.9c0.4,25-16.2,38.3-39.9,41.6C-17757.8-20738.8-17757.8-20738.6-17757.9-20738.1z M-17770.7-20772.1
				c1.2-13.5-10.1-16.8-21.5-16.4c-10.3,0.4-20.8,0.8-31.2,1.5c-1.7,10.9-5.9,31.3-4.5,32.8c1.9,2.2,22.5-0.2,33.7-0.4
				C-17782.4-20754.6-17771.8-20759.5-17770.7-20772.1z"/>
			<path class="st1" d="M-17690.7-20679.5c0.3-24-0.3-48-1-71.9c-0.7-24-1.6-48-3.3-72c17.2,0.2,34.4,0.6,51.5,1.2
				c2.9,23.8,5.8,47.6,8,71.3c2.2,23.8,4,47.8,5.4,71.7C-17650.3-20679.3-17670.5-20679.4-17690.7-20679.5z"/>
			<path class="st1" d="M-17557.8-20722.3c1.9,14.1,21.4,14.1,31.7,14.5c7.3,0.3,28,1.4,26.9-8.8c-1.4-13.5-30.4-14.4-41.1-15.7
				c-31.4-3.7-70.3-10-75.6-47.1c-5.5-38.3,33.7-43.4,62.9-41c33.4,2.7,74.8,10.5,88.7,45.6c1.1,2.7,2.1,5.4,3,8.2
				c-9.5-1.4-19.1-2.3-28.6-3c-7.5-0.5-14.5-0.8-18.8-0.9c-0.2-1.1-0.5-2.4-0.8-3.3c-3.8-12.2-21.1-13.2-31.4-13.6
				c-19.7-0.9-23.7,2-22.3,7.6c3.4,14,31.9,14.7,42.3,16.2c30.8,4.6,69.4,13.2,78.3,47.8c10.9,42.3-51.5,41.9-76.6,41.5
				c-30.5-0.5-86.2-0.3-89.6-42.2c-0.3-3.2-0.4-6.6-0.4-10.2c10.7,1.2,21.6,1.9,32.3,2.3c7.1,0.2,13.8,0.2,18.8,0
				C-17558-20723.7-17557.9-20723.2-17557.8-20722.3z"/>
			<path class="st1" d="M-17337.6-20790c3.9,4.7,10.2,12.3,15.4,19c5.1,6.6,10.8,14.6,14.7,19.9c-14.2-2-28.4-3.8-42.7-5.5
				c15.1,27.1,26.7,54.9,34.5,85c-10.5-0.9-21.2-1.3-31.8-1.7c-10.5-0.4-21.2-0.8-31.7-0.6c-3.8-30.8-14.9-60.5-27.5-88.6
				c-14.1-1.2-28.2-2.4-42.3-3.3c-2.2-5.9-5.9-14.8-9.2-22.1c-3.4-7.5-7.5-15.7-10.5-21.2
				C-17424.8-20803.9-17381.1-20797.5-17337.6-20790z"/>
		</g>
		<g class="st0">
			<path class="st1" d="M-18014.9-20506.2c-45.5-3.2-105.6-22.9-115.1-73.7c-10.1-53.6,55.4-65.1,95.4-65.1
				c32.7,0,89.8,1.7,91.6,46.4c0.1,2.2,0.2,4.4,0.2,6.6c-10.2-0.6-20.5-0.8-30.6-0.9c-9.6-0.1-19.2-0.2-28.8,0.1
				c-0.1-1.3,0-2.5-0.1-3.6c-0.8-14.9-22.5-15.6-33-15.6c-22.1,0.1-37.6,11-33.5,34.8c4.1,23.5,22.4,36.4,45.5,37.3
				c12.2,0.5,28.2-1.3,28.1-16.9c-13.9-0.4-27.8-0.8-41.7-0.9c-0.3-2.6-1.6-9.7-2.1-12.5c-0.8-5.1-1.4-9.5-2-13
				c17.6,0.7,35.2,1.1,52.8,1.5c15.3,0.3,30.6,0.5,45.9,0.4c2.7,18,7.9,43.9-4.4,59.8
				C-17961.4-20502.5-17994-20504.8-18014.9-20506.2z"/>
			<path class="st1" d="M-17792.3-20500.1c-1.1-5.2-3.8-14.8-7.7-26.4c-9.8-0.1-19.6-0.3-29.4-0.5c-9.8-0.2-19.6-0.4-29.4-0.6
				c-1.9,11.1-2.9,20.2-3,25.8c-20.2-0.7-40.3-1.4-60.5-2.3c10.3-47.6,25.2-93.1,41.5-138.9c32.8-0.2,65.5-0.3,98.3-0.4
				c15.8,48.8,35.4,97,56,143.9C-17748.4-20499.6-17770.4-20499.8-17792.3-20500.1z M-17810.8-20558.2c-4.5-12.6-8.8-25.7-13.7-37.8
				c-3.7-9.2-6.8-17.9-8.9-24.5c-2.1,6.6-5.1,15.1-8.3,24.8c-3.9,12-7.2,24.4-10.4,36.8c7.6,0.3,14.7,0.4,20.4,0.5
				C-17823.4-20558.3-17819.2-20558.3-17810.8-20558.2z"/>
			<path class="st1" d="M-17559.7-20502.4c3.8-19.4,7-38.9,9-58.4c1-9.7,2.1-19.5,3.1-29.3c-0.4-0.1-0.6-0.1-0.9-0.2
				c-3.7,9.6-8,19.3-13,28.3c-11.7,20.3-23.7,40.5-35.7,60.7c-10.9,0.3-16.4,0.4-27.3,0.7c-8.4-21.6-17.6-42.7-27.3-63.7
				c-4.1-9.1-7.5-18.6-10.6-28.1c-0.4,0.1-0.6,0.1-1,0.2c0.5,10.1,0.9,20.2,0.7,30.3c-0.3,20.6-0.9,41.4-1.3,62
				c-16,0.2-32,0.3-48,0.3c1.2-24,1.4-48.2,1.5-72.2c0.1-23.9,0.1-47.9-0.7-71.8c26,0,52,0.1,78,0.1c8.4,19.3,16.9,38.6,25.3,57.9
				c2.6,6.6,5.5,15,8.2,23.3c3.5-8.4,7.2-16.8,10.1-23.4c9.3-18.9,18.4-37.9,26.4-57.4c23.5,0.1,47,0.3,70.5,0.5
				c0.4,23-0.5,46.2-2.7,68.8c-2.2,23-5.9,46.2-10.2,69.2C-17523.6-20503.8-17541.6-20503.1-17559.7-20502.4z"/>
			<path class="st1" d="M-17308.1-20640.7c0.1,3.6,0.3,9.9,0.3,15.1c0.1,5.3-0.1,12.1,0.1,15.9c-31.4,0.1-62.8,0.2-94.2,0.5
				c-0.3,7.1-0.5,10.7-1.2,17.8c30.7-0.5,61.4-1,92-2.3c-1,6.3-3.6,20.6-5.2,27.4c-30.2,0.9-60.3,1.8-90.5,2.8
				c-1.3,7.4-2.1,11.1-3.8,18.5c30.6-1.4,61.2-3,91.7-5c-1.5,4.2-4,11.3-6.4,17.4c-2.1,5.3-5,11.9-6.8,16.2
				c-48.6,4.1-97.2,7.6-145.8,10.3c6.8-22.3,11-45.4,13.5-68.2c2.5-22.4,3.4-45.4,1.4-68.2
				C-17411.4-20642-17359.8-20641.4-17308.1-20640.7z"/>
		</g>
		<g class="st0">
			<path class="st1" d="M-18017.7-20479.7c1.3,14,5,27.7,9.5,41c-1.9-0.3-4.5-0.7-7.4-1.1c-3.7-0.5-6.9-0.9-8.2-1
				c-3.5-4.1-11.3-13-17.7-21c-2.6-3.2-5.3-6.7-7.5-9.6c-0.1,0-0.1,0-0.2,0c1.1,2.9,2.3,6.3,3.3,9.2c2.3,6.9,5.7,15,7.6,19.2
				c-1.3-0.2-3.9-0.7-5.9-1c-4.1-0.6-6.6-1-7.9-1.1c-13.8-13.8-26.9-28.3-40.4-42.4c6,0.7,9,1,14.9,1.7c6.3,8.3,12.9,16.3,19.7,24.2
				c2.6,2.9,4.7,5.5,6.6,7.5c0.1,0,0.2,0,0.3,0c-0.9-2-1.8-4.3-3-7.2c-3.2-7.7-6.6-18.4-8.4-22.9c2.1,0.3,6.5,0.7,9,1
				c2.3,0.2,5.4,0.5,7.1,0.7c5.8,8.6,12.1,16.8,18.7,24.8c2.8,3.4,4.8,5.9,6.4,7.9c0.1,0,0.2,0,0.4,0c-0.8-1.9-1.8-4.3-2.9-7.4
				c-2.9-8.2-6.2-19.3-7.6-23.8C-18025.9-20480.5-18023.2-20480.2-18017.7-20479.7z"/>
			<path class="st1" d="M-17940-20429.3c-15.4-1.8-30.7-12.2-37.1-26.3c-6.3-13.9,4.9-21.9,18.3-20.5c14.7,1.6,29.9,11.2,35.6,25.3
				C-17917.8-20437.6-17926.3-20427.7-17940-20429.3z M-17935.9-20451.7c-3-7.9-8.6-12.3-18.9-13.2c-10.3-0.8-13.1,2.8-9.7,10.7
				c3.4,7.8,9.5,12.6,19.4,13.6C-17935.1-20439.6-17933-20443.8-17935.9-20451.7z"/>
			<path class="st1" d="M-17849.5-20441.1c7.2,1.2,10.5,3.1,13.6,9.6c1.9,3.9,3.6,7.5,4.6,9.5c-4.5-0.2-6.7-0.4-11.2-0.6
				c-1.9-0.1-2.3-0.7-5-6.5c-3.1-6.6-4.6-7.9-10.9-8.2c-4.1-0.2-6.2-0.4-12.6-0.7c1.6,5.5,3.2,10.4,4.5,13.8
				c-5-0.3-7.4-0.5-12.4-0.9c-2.1-6.6-3.9-13-6.7-22.7c-2.7-9.6-4.4-16.2-6.1-22.7c10,0.5,19.9,1,29.9,1.5c9.5,0,19.6,4.6,21.4,14.8
				c1.4,8-1.1,12.1-9.1,13C-17849.5-20441.2-17849.5-20441.2-17849.5-20441.1z M-17859.8-20447.2c6.3,0.3,8.5-1.4,7.6-5.4
				c-1-4.6-4.1-5.8-10.7-6.1c-2.6-0.1-9.8-0.5-13.8-0.5c0.9,3.8,1.7,10.2,2.8,11.1
				C-17872.9-20447.4-17865.5-20447.5-17859.8-20447.2z"/>
			<path class="st1" d="M-17789.2-20466.7c0.2,3.5,1,12.7,2.1,23.2c0.4,3.9,0.9,7.8,1.3,11.2c6.1,0.2,14.9,0.4,22.1,0.3
				c0.1,2,0.2,4.1,0.4,6.2c0.2,2.1,0.4,4.2,0.6,6.2c-11.2-0.3-22.4-0.6-33.6-1c-0.6-4.3-1.8-13.3-3.1-23.2
				c-1.4-10.7-2.4-18.8-3.1-23.2C-17797.1-20466.9-17794.5-20466.8-17789.2-20466.7z"/>
			<path class="st1" d="M-17704.1-20466c14.7-1.1,24.1,7.8,23.1,22.4c-1,14.5-9.1,24.5-24.3,24.4c-9.4,0.1-14.1,0.1-23.6,0
				c0-6.5-0.1-13.4-0.3-23.3c-0.2-9.9-0.3-17.4-0.5-23.5C-17719.4-20465.9-17714.3-20465.9-17704.1-20466z M-17693.5-20443.2
				c0.4-9.2-3.1-11.6-11.2-11.5c-4.3,0-8.2,0.1-12,0.3c-0.1,3.9-0.1,8.3-0.2,12.4c0,4.9,0,8.4,0,11.3c4.1,0.3,7.1,0.2,11.5,0.1
				C-17697.6-20430.6-17693.9-20433.4-17693.5-20443.2z"/>
			<path class="st1" d="M-17571.4-20469.3c-8.2,15.3-15.9,31-23.6,46.6c-1.8,0-4.4,0.1-7.3,0.3c-3.7,0.2-7,0.4-8.3,0.6
				c0-4.3-0.2-13.8-0.5-22.3c-0.1-3.4-0.2-7.2-0.3-10.3c-0.1,0-0.1,0-0.2,0c-1.2,3.3-2.6,7.2-4.1,10.7c-3.4,8-7.3,17.5-9.4,22.6
				c-1.3,0-3.8,0-5.8,0.1c-4.1,0.2-6.6,0.3-8,0.4c-1.7-15.5-3.5-31-7.3-46.1c6-0.1,9-0.2,14.9-0.4c0.1,3.5,1.2,17.4,1.8,26.5
				c0.2,3.2,0.3,6,0.5,8.2c0.1,0,0.2,0,0.3,0c0.9-2.3,2-5.1,3.2-8.5c3.3-8.8,6.7-17.6,9.4-26.6c2.1,0,6.4-0.1,9-0.2
				c2.3-0.1,5.4-0.2,7.2-0.3c0,4.7,0.2,17.1,0.6,26.4c0.2,3.5,0.1,6.2,0.1,8.3c0.1,0,0.2,0,0.4,0c0.8-2.2,1.8-4.8,3.4-8.4
				c3.6-8.9,7.2-17.8,10.5-26.8C-17579.5-20469-17576.8-20469.1-17571.4-20469.3z"/>
			<path class="st1" d="M-17549.2-20425.9c2.5-7,4.5-13,7.4-22.6c2.9-9.7,4.6-15.7,6.2-22.6c5.2-0.3,7.9-0.5,13.1-0.8
				c-2.1,6.8-3.9,12.9-7,22.5c-3.1,9.5-5.2,15.6-7.6,22.6C-17541.9-20426.5-17544.4-20426.3-17549.2-20425.9z"/>
			<path class="st1" d="M-17455.7-20476.7c13.9-1.7,22,5.1,14.7,18.7c-6.8,12.8-18.9,23.8-34.5,24.9c-9.4,1.1-14.1,1.6-23.6,2.6
				c2.9-6.1,5.8-12.7,9.5-22c3.7-9.4,6.3-16.4,8.1-22.1C-17471.1-20475.4-17466-20475.8-17455.7-20476.7z M-17453.6-20456.4
				c4-8.5,1.3-10.4-6.8-9.7c-4.3,0.4-8.2,0.8-12.1,1.3c-1.5,3.7-3.2,7.8-4.9,11.6c-1.9,4.6-3.4,7.9-4.6,10.6c4-0.1,7.1-0.6,11.4-1
				C-17462.8-20444.5-17457.8-20447.4-17453.6-20456.4z"/>
			<path class="st1" d="M-17348.1-20487.2c-0.7,1-1.8,2.9-2.7,4.4c-1,1.6-2.3,3.7-2.9,4.7c-10.2,1.2-20.5,2.4-30.7,3.6
				c-1.6,2.8-2.4,4.1-4,6.9c10-1.2,20-2.4,30-3.9c-1.3,1.9-4.4,6.4-5.8,8.5c-9.7,1.2-19.5,2.5-29.2,3.7c-1.8,2.9-2.7,4.3-4.5,7.1
				c9.9-1.3,19.8-2.8,29.6-4.3c-0.9,1.1-2.6,3.4-3.8,5c-1.1,1.5-2.6,3.5-3.5,4.7c-13.7,2.2-27.4,4.3-41.1,6.2c3.9-5.6,8-12,13.1-21
				c5.1-8.9,8.6-15.6,11.1-20.9C-17377.7-20484-17362.9-20485.6-17348.1-20487.2z"/>
		</g>
	</g>
</g>
<g>
	<g id="Group_548_6_" transform="translate(18174 20827)">
		<g class="st0">
			<path class="st1" d="M-16737.8-21341.9c-8.2,41.1,29.4,116.8-17.7,140.9c-10.3-0.2-20.6-0.9-30.8-1.8c-11.7-1-23.6-2.4-35.4-3.7
				c2.6-15.6-1.8-30.6-6.3-45.4c-3.9-12.5-8.1-24.9-12.1-37.3c-0.6-0.1-0.9-0.1-1.4-0.2c0.8,11.8,1.9,23.7,0.7,35.4
				c-3.2,16.7-9,28.6-19,42.3c-9.9-1.4-19.9-3-29.7-4.3c-11-1.4-22.2-2.7-33.4-3.4c-10.1-40.8-21.4-82.1-35.4-121.8
				c18.1-0.1,36.1-0.1,54.2-0.1c3.1,24.7,11.5,48.9,18.5,72.7c2.3,8.3,4,15.8,5.5,21.9c0.5,0.1,0.7,0.1,1.2,0.2
				c1.5-5.6,3.3-12.4,4.3-20.5c2.6-24.7,1.4-49.6,3.7-74.3c10.1,0.3,20.1,0.4,30.2,0.5c7.7,0,20.4-0.1,26.3-0.3
				c6.6,31.6,21.6,61.7,33.4,91.6c4.6,11,7.2,19.5,8.1,24.8c0.4,0.1,0.6,0.1,1.1,0.1c1.5-5.1,1.6-13.1,1.1-23.7
				c-2.4-30.9-12.3-61.7-11-92.8C-16767.1-21341.1-16752.5-21341.3-16737.8-21341.9z"/>
			<path class="st1" d="M-16610.9-21267.8c15.8-1.5,28.7,7.1,32.3,22.5c2.1,8.8,4.7,18.9,6.4,24c-14,0.1-27.9,0.6-41.9,2.1
				c-7.2,0.8-9-1-10.1-12.5c-0.9-9.9-4.8-21.1-17-15.6c-8.5,2.7-12.6,4.2-20.9,7.1c-0.7,10.2-1.7,19.3-4.2,29.2
				c-15.1,2.7-30.2,5.2-45.4,7.3c13.7-16.4,10.4-33.9,6.3-53.3c-6-27.7-16.9-56.6-20-85.6c30.7-2.3,61.3-5.7,91.9-8.3
				c26.9-2.1,55.8,6.3,55.4,38.3c-0.3,22.5-11.2,36.9-32.8,43.9C-16610.9-21268.4-16610.9-21268.2-16610.9-21267.8z
				 M-16624.1-21300.3c-0.7-12.7-9.4-17.2-21.3-15.3c-5.2,0.8-18.3,3.1-27,5c2.2,12.9,4.4,37,6.8,38.7c1.4,0.9,15-3.8,25.5-6.3
				C-16628.9-21280.9-16623.5-21289.2-16624.1-21300.3z"/>
			<path class="st1" d="M-16555.5-21221.9c1-20.4,0.7-40.9,0.7-61.4c0-23.6,0-47.2-0.6-70.8c16.9-1,33.8-2.7,50.6-4.8
				c-0.6,24.8-0.1,49.7,0.1,74.5c0.2,19,0.6,37.9-1.6,56.8C-16522.5-21225.1-16539-21223.1-16555.5-21221.9z"/>
			<path class="st1" d="M-16438.9-21258.8c0.4,10.9,17.9,9.3,24.9,9.2c8.4-0.2,24.1,0.3,25.4-6.2c1.9-9.1-25.1-12.3-33.6-13.1
				c-32.2-3-61.5-11.6-62-48.6c-0.5-39.6,34.9-52,69.2-53.9c34.8-1.9,71.6,6,72.2,47c0.1,3.3,0.1,6.7,0,10.2
				c-6.3-1.2-17.1-2.5-26.2-2.9c-6.9-0.3-13.5-0.2-17.5-0.1c0.1-1.4,0-3.1,0.1-4.3c0.2-13.7-16.5-14.9-26.4-14.6
				c-7.6,0.3-22.4,1.5-22.7,12.1c-0.4,15.2,26.3,15.6,35.9,16.7c29.2,3.4,60.1,16.2,60.1,50c0,27-63.1,17.8-78.3,18.7
				c-14.7,1-68.5,14.4-66.4-14.8c0.2-2.4,0.3-5.2,0.6-8.4c9.3,0.9,18.7,1.3,28,1.3c6.2,0,12-0.2,16.5-0.5
				C-16438.9-21260-16438.9-21259.6-16438.9-21258.8z"/>
			<path class="st1" d="M-16200.2-21341.2c-0.3,4.8-0.3,12.3-0.3,19c0,6.6,0,14.6,0.3,19.8c-13.1-0.4-26.1-1.1-39.2-2.1
				c0.1,27.2,0,54.4,0.1,81.5c-7.2-1.1-19.2-2.4-27.7-3.5c-9.4-1.2-18.8-2.5-28.2-3.5c7.1-25.4,3.7-53.8,3.5-79.8
				c-13.2-1.3-26.3-2.6-39.5-3.7c0-7.2-0.2-18.1-0.3-26.5c-0.1-8.6-0.2-17.3-0.4-22.7
				C-16288.2-21354-16245.1-21342.6-16200.2-21341.2z"/>
		</g>
		<g class="st0">
			<path class="st1" d="M-16842.4-21068.3c-42.4,0.1-82.5-16.2-82.6-64.2c0-50.7,42.6-60.3,85-58.1c26.6,1.4,73.9-0.1,73.7,37.7
				c0,1.9,0,3.8-0.2,5.8c-7-0.4-16.5-0.5-25.6-0.5c-9.3,0-17.9,0.2-24.2,0.5c0-1.1,0.2-2.2,0.2-3.2c-0.1-13.1-17.3-13.7-26.9-13.8
				c-20.7-0.2-30.8,12.3-30.7,32.5c0.1,20.6,11.5,32.9,32.5,32.8c11.8-0.1,24.9-2.9,27.2-16.3c-11.8,0.1-23.7,0.1-35.5,0.5
				c0.2-2.4,0.2-8.8,0.2-11.4c0-4.6,0-8.6-0.2-11.8c14.8,0.2,29.6,0.3,44.3,0.3c12.8,0,25.7,0.1,38.6-0.3
				c1.1,17.5,1.6,38.7-11.2,52.4C-16793.1-21068.8-16821.5-21068.4-16842.4-21068.3z"/>
			<path class="st1" d="M-16644.1-21090.7c-0.6-5.3-2.4-14.9-5.1-23.2c-9.3,2-18.4,4.1-25.4,5.8c-6.7,1.6-16,3.7-25.4,5.8
				c-2.7,9.8-4.8,18.5-5.6,23.9c-17.8,3.1-35.5,5.6-53.6,6.9c9.2-21.5,17.1-43.6,25.5-65.5c6.4-16.7,10.7-36.8,22.2-50.9
				c26.6-0.9,53.2-2.1,79.8-2.9c10.2,34.3,34.6,59.1,46.1,92.8C-16605.3-21097.2-16624.9-21094.4-16644.1-21090.7z
				 M-16656.9-21132.9c-3.4-7-6.8-14.2-10.4-21.4c-3-5.9-5.4-12.3-7.2-17.8c-1.8,5.5-4.3,11.9-7.2,18.8c-3.3,7.8-6.9,16.6-10.2,25.9
				c6.4-0.9,12.5-1.8,17.3-2.6C-16667.6-21131.2-16664-21131.8-16656.9-21132.9z"/>
			<path class="st1" d="M-16437.9-21075.8c0.8-20.8-0.5-40.6-3-61.1c-1.6-12.7-3.1-25.6-4.4-38.4c-0.3,0-0.5-0.1-0.8-0.1
				c-1,12.2-1.8,24.5-4,36.6c-4.6,21.2-11.9,37.6-21,56.9c-9.7-2-14.5-3-24.2-5c-7.8-19.6-16.2-38.6-28.3-55.9
				c-3.5-5.2-7.2-11.3-10.2-17.1c-0.3,0.1-0.4,0.2-0.7,0.3c0.8,6.1,1.7,12,2.3,18.2c1.4,15.9,1.5,32,1.9,48
				c-14.2-2.1-28.2-3.7-42.6-4.6c0.5-16.1,1.1-32.1,0.9-48.2c-0.1-15.1-0.3-30.2-0.7-45.2c21-2,40.6-6.6,60.8-12.8
				c6.4,14.2,13.3,28,20.7,41.7c2.9,5.8,6.4,13.7,10,22c1.5-8.3,2.9-17.2,4.1-24.5c3.9-18.9,6.2-40.4,17.8-56.4
				c18.6-5.1,36.4-8.4,55.6-9.6c-7.8,22.8,1.8,54.3,5.2,77c4.1,27.7,7.4,55,8.7,83C-16405.9-21071.4-16422-21073.3-16437.9-21075.8z
				"/>
			<path class="st1" d="M-16237.5-21195.4c-0.2,3.3-0.5,9.2-0.4,14.3c0,5.3,0,11.6,0.3,15.4c-29.3-5.9-57.7-15.4-86.5-23.6
				c0.6,8.1,1,12.7,2,22c27.6,6.3,55,13.6,83.1,17.5c0.1,9.7,0.4,19.4,0.7,29c-26.6-2.3-53.1-6-79.6-8.9c1.1,9.9,1.6,14.8,2.3,23.5
				c26.5,1,53,2.1,79.5,2.4c-0.1,4.2-0.2,10.8-0.2,16.8c0,5.1,0,11.5,0.2,15.7c-43.1,0-86.2,0-129.3,0c1.1-27.6-2.8-54.3-6.7-81.6
				c-3.3-23.5-11.2-52.2-6.1-76.2C-16330.5-21221.2-16284.9-21204.9-16237.5-21195.4z"/>
		</g>
		<g class="st0">
			<path class="st1" d="M-16854.9-21043.2c-4.7,12.8-8.6,26-12.6,39c-1.8-0.1-4.4-0.1-7.3-0.1c-3.7,0-6.9,0.1-8.2,0.1
				c-0.9-3.7-3.1-11.8-4.8-19c-0.7-2.9-1.4-6.1-2-8.8c-0.1,0-0.1,0-0.2,0c-0.6,2.8-1.3,6-2.2,8.9c-1.9,6.7-4.1,14.6-5.3,18.8
				c-1.3-0.1-3.8-0.1-5.8-0.1c-4.1,0-6.6,0.1-8,0.1c-4.1-13-7.8-26.2-12.7-39c5.5,0,8.3,0,13.8,0c0.5,3,3.2,14.7,5.1,22.4
				c0.7,2.7,1.2,5,1.7,6.9c0.1,0,0.2,0,0.3,0c0.5-1.9,1.1-4.3,1.8-7.1c1.8-7.5,4.5-18,5.1-22.3c1.9,0.1,5.9,0.1,8.3,0.1
				c2.1,0,4.9,0,6.6-0.1c0.7,4,3,14.6,5.3,22.5c0.9,3,1.4,5.3,1.8,7.1c0.1,0,0.2,0,0.4,0c0.4-1.8,0.8-4.1,1.6-7.1
				c1.8-7.7,4.1-18.3,4.9-22.5C-16862.4-21043.2-16859.9-21043.2-16854.9-21043.2z"/>
			<path class="st1" d="M-16800.1-21003c-12.9,0.5-25.7-7.3-25.7-21.1c0-13.7,13.1-20.8,25.7-20.3c12.5,0.4,25.8,5.9,25.8,20.3
				C-16774.3-21009.5-16787.3-21003.5-16800.1-21003z M-16786.5-21023.9c0-6.9-4-10.6-13.6-10.6s-13.7,3.5-13.7,10.6
				c0,7,4,10.9,13.7,10.9C-16790.4-21013-16786.5-21017-16786.5-21023.9z"/>
			<path class="st1" d="M-16704.9-21020.3c6.8,0.6,9.6,2.3,11.3,8c1,3.5,1.9,6.5,2.5,8.1c-4.5,0-6.7,0-11.1,0
				c-1.9,0-2.2-0.4-3.4-5.3c-1.5-5.7-2.7-6.8-8.8-6.7c-4,0.1-6,0.1-12.3,0.2c0.1,4.9,0.3,9,0.6,11.8c-5,0-7.4,0-12.4,0
				c0.1-5.5,0.2-11,0.2-19.6c0-8.5-0.1-14.5-0.2-20.4c11-0.6,16.6-1.1,27.6-2.1c11.4-1.1,17.4,3,17.4,12.3c0,8-3.3,12.1-11.4,13.5
				C-16704.9-21020.4-16704.9-21020.4-16704.9-21020.3z M-16713.5-21025.2c6-0.2,8.5-2.1,8.5-5.8c0-4.4-2.7-5.2-8.9-4.9
				c-2.5,0.1-9.2,0.5-12.9,0.9c0,3.5-0.5,9.6,0.1,10.1C-16726.3-21024.4-16719-21025.1-16713.5-21025.2z"/>
			<path class="st1" d="M-16643.9-21053.3c-0.2,4.1-0.3,14.8-0.3,26.1c0,4.1,0,8.2,0,11.6c5.9-0.1,14.6-0.1,21.6-0.5
				c-0.1,2-0.1,4.1-0.1,6.1c0,2,0.1,3.9,0.1,5.7c-11.2,0-22.4,0-33.5,0c0-3.7,0.2-12.1,0.2-22.5c0-11.2,0-20.4-0.2-25.3
				C-16651.2-21052.6-16648.8-21052.8-16643.9-21053.3z"/>
			<path class="st1" d="M-16565.3-21056.8c16.3,0.2,22.4,13.3,22.5,27.9c0.1,15.1-6.8,25-22.7,24.6c-9.4,0-14.1,0-23.5,0
				c0.2-5.6,0.1-12.5,0.2-23.9c0-9.6,0-19.1-0.2-28.7C-16579.5-21057.1-16574.8-21057.1-16565.3-21056.8z M-16554.7-21028.8
				c0-10.6-3.3-13.8-10.9-13.9c-4-0.1-7.7,0-11.3,0.3c-0.1,4.9-0.1,10.2-0.1,14.8c0,5.6,0,9.4,0.1,12.4c4,0.3,7,0.1,11.2,0.1
				C-16558.2-21015.2-16554.7-21017.7-16554.7-21028.8z"/>
			<path class="st1" d="M-16442.8-21045.8c-4.6,13.8-8.3,27.8-12.6,41.6c-1.8-0.1-4.4-0.1-7.3-0.1c-3.7,0-6.9,0-8.2,0.1
				c-0.9-3.7-3.1-12.3-4.8-20.8c-0.7-3.4-1.4-7.3-2-10.6c-0.1,0-0.1,0-0.2,0c-0.6,3.3-1.3,7.2-2.2,10.6c-1.9,7.8-4.1,16.5-5.3,20.7
				c-1.3-0.1-3.8-0.1-5.8-0.1c-4.1,0-6.6,0-8,0.1c-4.8-16.1-8.1-32.6-12.7-48.8c5.5,0.6,8.3,0.8,13.8,1.4c1.4,9.6,3.1,19.3,5.1,28.8
				c0.7,3.3,1.2,6,1.7,8.1c0.1,0,0.2,0,0.3,0c0.5-2.2,1.1-4.9,1.8-8.2c1.8-8.8,4.5-21.9,5.1-27.2c1.9,0.3,5.9,0.7,8.3,1
				c2.1,0.2,4.9,0.5,6.6,0.7c0.7,4.9,3,17.8,5.3,26.8c0.9,3.4,1.4,5.9,1.8,7.8c0.1,0,0.2,0,0.4,0c0.4-1.9,0.8-4.3,1.6-7.7
				c1.8-8.5,4.1-20.6,4.9-25.4C-16450.3-21046.5-16447.8-21046.3-16442.8-21045.8z"/>
			<path class="st1" d="M-16409.8-21004.2c0.2-5.8,0.2-11.1,0.2-19.5c0-8.4,0-13.9-0.2-20c4.8,0.2,7.3,0.3,12.1,0.3
				c-0.2,5.9-0.2,11.2-0.2,19.6c0,8.2,0,13.5,0.2,19.5C-16402.5-21004.2-16404.9-21004.2-16409.8-21004.2z"/>
			<path class="st1" d="M-16336-21043.2c12.7-0.2,22.5,5.4,22.5,18.9c0,13.7-9.3,20.4-22.7,20.1c-9.4,0-14.1,0-23.5,0
				c0.2-5.4,0.2-11.2,0.2-19.4s0-14.5-0.2-19.6C-16350.2-21043.2-16345.5-21043.2-16336-21043.2z M-16325.4-21024.1
				c0-7.7-3.3-9.7-10.9-9.7c-4,0-7.7,0.1-11.3,0.2c-0.1,3.3-0.1,6.9-0.1,10.3c0,4.1,0,7,0.1,9.4c4,0.3,7,0.2,11.2,0.2
				C-16329-21013.7-16325.4-21016-16325.4-21024.1z"/>
			<path class="st1" d="M-16236.7-21043.2c-0.1,1-0.1,2.8-0.1,4.3c0,1.5-0.1,3.5,0.1,4.6c-9.6-0.1-19.2-0.1-28.9-0.1
				c0,2.6,0,3.9,0,6.5c9.4,0,18.9,0,28.3-0.2c-0.1,1.9-0.1,6.2-0.1,8.2c-9.4-0.1-18.9-0.2-28.3-0.2c0,2.7,0,4,0,6.7
				c9.6,0,19.2,0,28.9-0.1c-0.1,1.1-0.1,3.2-0.1,4.8c0,1.5,0,3.4,0.1,4.5c-13.7,0-27.3,0-41,0c0.2-5.2,0.2-11.2,0.2-19.5
				c0-8.3,0-14.5-0.2-19.5C-16264-21043.2-16250.4-21043.2-16236.7-21043.2z"/>
		</g>
	</g>
</g>
</svg>
